<?xml version="1.0" encoding="utf-8"?>
<!-- Generator: Adobe Illustrator 23.0.0, SVG Export Plug-In . SVG Version: 6.00 Build 0)  -->
<svg version="1.1" id="Layer_1" xmlns="http://www.w3.org/2000/svg" xmlns:xlink="http://www.w3.org/1999/xlink" x="0px" y="0px"
	 viewBox="0 0 141.73 141.73" style="enable-background:new 0 0 141.73 141.73;" xml:space="preserve">
<style type="text/css">
	.st0{fill:#FFFFFF;stroke:none;}
	.st1{fill:#FFFFFF;stroke:none;}
</style>
<g>
	<linearGradient id="SVGID_1_" gradientUnits="userSpaceOnUse" x1="15.527" y1="69.1521" x2="87.8575" y2="69.1521">
		<stop  offset="0" style="stop-color:#FFFFFF;stop-opacity:0"/>
		<stop  offset="1" style="stop-color:#FFFFFF;stop-opacity:0.8"/>
	</linearGradient>
	<linearGradient id="SVGID_2_" gradientUnits="userSpaceOnUse" x1="15.027" y1="69.1521" x2="88.3575" y2="69.1521">
		<stop  offset="0" style="stop-color:#FFFFFF;stop-opacity:0.7"/>
		<stop  offset="1" style="stop-color:#FFFFFF;stop-opacity:0"/>
	</linearGradient>
	<path class="st0" d="M72.97,18.34l14.81,99.63c0.61,4.09-2.56,7.76-6.69,7.76H65.12c-3.53,0-6.47-2.72-6.74-6.24l-0.96-12.36
		c-0.08-0.98-0.9-1.74-1.88-1.74h-7.05c-0.98,0-1.79,0.75-1.88,1.72l-1.08,12.44c-0.3,3.5-3.23,6.18-6.74,6.18h-16.5
		c-4.09,0-7.24-3.6-6.71-7.65L28.8,18.45c0.45-3.36,3.31-5.88,6.71-5.88h30.77C69.63,12.57,72.48,15.03,72.97,18.34z M56.28,83.25
		c-0.93-8.2-1.86-17.58-2.79-28.14c-0.2-2.25-3.47-2.31-3.75-0.07c-1.53,11.85-2.58,21.27-3.17,28.25c-0.09,1.1,0.77,2.05,1.87,2.05
		c1.74,0,4.22,0,5.98,0C55.53,85.33,56.4,84.37,56.28,83.25z"/>
	<linearGradient id="SVGID_3_" gradientUnits="userSpaceOnUse" x1="93.9322" y1="69.1521" x2="123.3568" y2="69.1521">
		<stop  offset="0" style="stop-color:#FFFFFF;stop-opacity:0"/>
		<stop  offset="1" style="stop-color:#FFFFFF;stop-opacity:0.8"/>
	</linearGradient>
	<linearGradient id="SVGID_4_" gradientUnits="userSpaceOnUse" x1="93.4322" y1="69.1521" x2="123.8568" y2="69.1521">
		<stop  offset="0" style="stop-color:#FFFFFF;stop-opacity:0.7"/>
		<stop  offset="1" style="stop-color:#FFFFFF;stop-opacity:0"/>
	</linearGradient>
	<path class="st1" d="M123.36,19.11v100.09c0,3.61-2.93,6.53-6.53,6.53h-16.36c-3.61,0-6.53-2.93-6.53-6.53V19.11
		c0-3.61,2.93-6.53,6.53-6.53h16.36C120.43,12.57,123.36,15.5,123.36,19.11z"/>
</g>
</svg>

