<?xml version="1.0" encoding="utf-8"?>
<!-- Generator: Adobe Illustrator 23.0.0, SVG Export Plug-In . SVG Version: 6.00 Build 0)  -->
<svg version="1.1" id="Layer_1" xmlns="http://www.w3.org/2000/svg" xmlns:xlink="http://www.w3.org/1999/xlink" x="0px" y="0px"
	 viewBox="0 0 141.73 141.73" style="enable-background:new 0 0 141.73 141.73;" xml:space="preserve">
<style type="text/css">
	.st0{fill:#FFFFFF;stroke:none;stroke-miterlimit:10;}
	.st1{fill:#FFFFFF;stroke:none;stroke-miterlimit:10;}
	.st2{fill:#FFFFFF;stroke:none;stroke-miterlimit:10;}
	.st3{fill:#FFFFFF;stroke:none;stroke-miterlimit:10;}
	.st4{fill:#FFFFFF;stroke:none;stroke-miterlimit:10;}
</style>
<g>
	<linearGradient id="SVGID_1_" gradientUnits="userSpaceOnUse" x1="9.4136" y1="94.2268" x2="35.0387" y2="94.2268">
		<stop  offset="0" style="stop-color:#FFFFFF;stop-opacity:0.7"/>
		<stop  offset="1" style="stop-color:#FFFFFF;stop-opacity:0"/>
	</linearGradient>
	<path class="st0" d="M31.29,126.04H13.16c-1.79,0-3.25-1.45-3.25-3.25V65.66c0-1.79,1.45-3.25,3.25-3.25h18.13
		c1.79,0,3.25,1.45,3.25,3.25v57.13C34.54,124.58,33.09,126.04,31.29,126.04z"/>
	<linearGradient id="SVGID_2_" gradientUnits="userSpaceOnUse" x1="40.7986" y1="88.0341" x2="66.4237" y2="88.0341">
		<stop  offset="0" style="stop-color:#FFFFFF;stop-opacity:0.7"/>
		<stop  offset="1" style="stop-color:#FFFFFF;stop-opacity:0"/>
	</linearGradient>
	<path class="st1" d="M62.68,126.04H44.54c-1.79,0-3.25-1.45-3.25-3.25V53.28c0-1.79,1.45-3.25,3.25-3.25h18.13
		c1.79,0,3.25,1.45,3.25,3.25v69.52C65.92,124.58,64.47,126.04,62.68,126.04z"/>
	<linearGradient id="SVGID_3_" gradientUnits="userSpaceOnUse" x1="72.1836" y1="107.0361" x2="97.8087" y2="107.0361">
		<stop  offset="0" style="stop-color:#FFFFFF;stop-opacity:0.7"/>
		<stop  offset="1" style="stop-color:#FFFFFF;stop-opacity:0"/>
	</linearGradient>
	<path class="st2" d="M94.06,126.04H75.93c-1.79,0-3.25-1.45-3.25-3.25V91.28c0-1.79,1.45-3.25,3.25-3.25h18.13
		c1.79,0,3.25,1.45,3.25,3.25v31.51C97.31,124.58,95.86,126.04,94.06,126.04z"/>
	<linearGradient id="SVGID_4_" gradientUnits="userSpaceOnUse" x1="101.8786" y1="97.6557" x2="127.5037" y2="97.6557">
		<stop  offset="0" style="stop-color:#FFFFFF;stop-opacity:0.7"/>
		<stop  offset="1" style="stop-color:#FFFFFF;stop-opacity:0"/>
	</linearGradient>
	<path class="st3" d="M123.76,126.04h-18.13c-1.79,0-3.25-1.45-3.25-3.25V72.52c0-1.79,1.45-3.25,3.25-3.25h18.13
		c1.79,0,3.25,1.45,3.25,3.25v50.27C127,124.58,125.55,126.04,123.76,126.04z"/>
	<linearGradient id="SVGID_5_" gradientUnits="userSpaceOnUse" x1="18.1116" y1="43.2576" x2="134.3164" y2="43.2576">
		<stop  offset="0" style="stop-color:#FFFFFF;stop-opacity:0.7"/>
		<stop  offset="1" style="stop-color:#FFFFFF;stop-opacity:0"/>
	</linearGradient>
	<path class="st4" d="M132.45,34.2l-20.01-2.79c-1.39-0.19-2.33,1.37-1.51,2.51l5.18,7.13c0.11,0.15,0.08,0.36-0.07,0.47
		L88.43,61.75c-0.16,0.12-0.39,0.07-0.49-0.1L61.17,17.43c-0.97-1.6-2.37-2.95-4.13-3.58c-2.26-0.81-4.67-0.54-6.66,0.71L18.77,34.4
		c-0.16,0.1-0.21,0.31-0.11,0.47l4.99,7.95c0.1,0.16,0.31,0.21,0.47,0.11l29.23-18.34c0.16-0.1,0.37-0.05,0.47,0.11L80.9,69.45
		c1.1,1.83,2.94,3.11,5.03,3.53c0.49,0.1,0.99,0.15,1.49,0.15c1.61,0,3.2-0.51,4.51-1.47l30.02-22c0.15-0.11,0.36-0.08,0.47,0.07
		l5,6.88c0.82,1.13,2.61,0.72,2.85-0.66l3.52-19.89C133.95,35.17,133.34,34.33,132.45,34.2z"/>
</g>
</svg>

