<?xml version="1.0" encoding="utf-8"?>
<!-- Generator: Adobe Illustrator 23.0.0, SVG Export Plug-In . SVG Version: 6.00 Build 0)  -->
<svg version="1.1" id="Layer_1" xmlns="http://www.w3.org/2000/svg" xmlns:xlink="http://www.w3.org/1999/xlink" x="0px" y="0px"
	 viewBox="0 0 141.73 141.73" style="enable-background:new 0 0 141.73 141.73;" xml:space="preserve">
<style type="text/css">
	.st0{fill:#FFFFFF;stroke:none;}
	.st1{fill:#FFFFFF;stroke:none;}
</style>
<g>
	<linearGradient id="SVGID_1_" gradientUnits="userSpaceOnUse" x1="0.6826" y1="49.5724" x2="122.4137" y2="103.3239">
		<stop  offset="0" style="stop-color:#FFFFFF;stop-opacity:0"/>
		<stop  offset="1" style="stop-color:#FFFFFF;stop-opacity:0.8"/>
	</linearGradient>
	<linearGradient id="SVGID_2_" gradientUnits="userSpaceOnUse" x1="6.8358" y1="86.613" x2="139.4443" y2="86.613">
		<stop  offset="0" style="stop-color:#FFFFFF;stop-opacity:0.7"/>
		<stop  offset="1" style="stop-color:#FFFFFF;stop-opacity:0"/>
	</linearGradient>
	<path class="st0" d="M131.96,52.03H14.32c-5.33,0-8.69,7.24-6.09,13.11l22.83,51.53c1.23,2.78,3.56,4.51,6.09,4.51h70.76
		c2.47,0,4.76-1.65,6.01-4.34l24.05-51.53C140.71,59.45,137.36,52.03,131.96,52.03z M51.85,100.14c0,4.49-2.88,8.13-6.43,8.13H44.4
		c-3.55,0-6.43-3.64-6.43-8.13V73.57c0-4.49,2.88-8.13,6.43-8.13h1.02c3.55,0,6.43,3.64,6.43,8.13V100.14z M81.36,100.14
		c0,4.49-2.88,8.13-6.43,8.13h-1.02c-3.55,0-6.43-3.64-6.43-8.13V73.57c0-4.49,2.88-8.13,6.43-8.13h1.02c3.55,0,6.43,3.64,6.43,8.13
		V100.14z M111.9,99.9c0,4.49-2.88,8.13-6.43,8.13h-1.02c-3.55,0-6.43-3.64-6.43-8.13V73.33c0-4.49,2.88-8.13,6.43-8.13h1.02
		c3.55,0,6.43,3.64,6.43,8.13V99.9z"/>
	<linearGradient id="SVGID_3_" gradientUnits="userSpaceOnUse" x1="14.9066" y1="4.1911" x2="124.301" y2="52.4951">
		<stop  offset="0" style="stop-color:#FFFFFF;stop-opacity:0"/>
		<stop  offset="1" style="stop-color:#FFFFFF;stop-opacity:0.8"/>
	</linearGradient>
	<linearGradient id="SVGID_4_" gradientUnits="userSpaceOnUse" x1="16.9429" y1="29.9046" x2="129.3371" y2="29.9046">
		<stop  offset="0" style="stop-color:#FFFFFF;stop-opacity:0.7"/>
		<stop  offset="1" style="stop-color:#FFFFFF;stop-opacity:0"/>
	</linearGradient>
	<path class="st1" d="M17.44,21.24v17.33c0,3.32,2.98,6.01,6.65,6.01h8.22c3.67,0,6.65-2.69,6.65-6.01v-5.66
		c0-3.32,2.98-6.01,6.65-6.01h55.04c3.67,0,6.65,2.69,6.65,6.01v5.66c0,3.32,2.98,6.01,6.65,6.01h8.22c3.67,0,6.65-2.69,6.65-6.01
		V21.24c0-3.32-2.98-6.01-6.65-6.01H24.1C20.42,15.23,17.44,17.92,17.44,21.24z"/>
</g>
</svg>

