<?xml version="1.0" encoding="utf-8"?>
<!-- Generator: Adobe Illustrator 23.0.0, SVG Export Plug-In . SVG Version: 6.00 Build 0)  -->
<svg version="1.1" id="Layer_1" xmlns="http://www.w3.org/2000/svg" xmlns:xlink="http://www.w3.org/1999/xlink" x="0px" y="0px"
	 viewBox="0 0 141.73 141.73" style="enable-background:new 0 0 141.73 141.73;" xml:space="preserve">
<style type="text/css">
	.st0{fill:#FFFFFF;stroke:none;stroke-miterlimit:10;}
	.st1{fill:#FFFFFF;stroke:none;stroke-miterlimit:10;}
</style>
<g>
	<linearGradient id="SVGID_1_" gradientUnits="userSpaceOnUse" x1="5.1608" y1="29.8063" x2="136.5692" y2="29.8063">
		<stop  offset="0" style="stop-color:#FFFFFF;stop-opacity:0.7"/>
		<stop  offset="1" style="stop-color:#FFFFFF;stop-opacity:0"/>
	</linearGradient>
	<path class="st0" d="M69.91,8.8L6.54,47.68c-1.58,0.97-0.89,3.4,0.96,3.4h126.73c1.85,0,2.54-2.43,0.96-3.4L71.82,8.8
		C71.24,8.44,70.49,8.44,69.91,8.8z"/>
	<linearGradient id="SVGID_2_" gradientUnits="userSpaceOnUse" x1="17.3199" y1="91.7372" x2="124.4101" y2="91.7372">
		<stop  offset="0" style="stop-color:#FFFFFF;stop-opacity:0.7"/>
		<stop  offset="1" style="stop-color:#FFFFFF;stop-opacity:0"/>
	</linearGradient>
	<path class="st1" d="M118.26,56.75H23.47c-3.12,0-5.65,2.32-5.65,5.17v59.63c0,2.86,2.53,5.17,5.65,5.17h25.39
		c2.77,0,5.01-2.05,5.01-4.58V90.36c0-2.86,2.53-5.17,5.65-5.17h22.68c3.12,0,5.65,2.32,5.65,5.17v31.78c0,2.53,2.24,4.58,5.01,4.58
		h25.39c3.12,0,5.65-2.32,5.65-5.17V61.92C123.91,59.06,121.38,56.75,118.26,56.75z"/>
</g>
</svg>

