<svg width="150" height="150" viewBox="0 0 150 150" fill="none" xmlns="http://www.w3.org/2000/svg">
<circle cx="75" cy="75" r="75" fill="#D9D9D9"/>
<mask id="mask0_304_326" style="mask-type:alpha" maskUnits="userSpaceOnUse" x="0" y="0" width="150" height="150">
<circle cx="75" cy="75" r="75" fill="#D9D9D9"/>
</mask>
<g mask="url(#mask0_304_326)">
<path d="M74.5 46C81.5945 46 88.3985 48.7393 93.4151 53.6152C98.4317 58.4912 101.25 65.1044 101.25 72C101.25 78.8956 98.4317 85.5088 93.4151 90.3848C88.3985 95.2607 81.5945 98 74.5 98C67.4055 98 60.6015 95.2607 55.5849 90.3848C50.5683 85.5088 47.75 78.8956 47.75 72C47.75 65.1044 50.5683 58.4912 55.5849 53.6152C60.6015 48.7393 67.4055 46 74.5 46ZM74.5 111C104.059 111 128 122.635 128 137V150H21V137C21 122.635 44.9412 111 74.5 111Z" fill="#686B6F"/>
</g>
</svg>
