<svg width="73" height="67" viewBox="0 0 73 67" fill="none" xmlns="http://www.w3.org/2000/svg">
<path d="M63.4144 16.3389C70.7192 26.333 60.7251 37.0655 46.5123 47.4538C32.2964 57.8416 19.2467 63.9547 11.9419 53.9606C4.63712 43.9665 11.629 29.1265 25.8418 18.7383C40.0564 8.3487 56.1096 6.34478 63.4144 16.3389Z" fill="url(#paint0_linear_304_2067)"/>
<path d="M26.2296 19.269C33.1775 14.1908 40.6526 11.0941 47.2733 10.5498C54.12 9.9875 59.5178 12.1232 62.8811 16.7248C66.2445 21.3264 65.9776 25.9391 62.4771 31.3881C59.5203 35.9898 54.3224 40.9233 46.1206 46.9181C37.9188 52.9129 31.6986 56.3249 26.4642 57.7102C20.2822 59.3491 15.7047 57.9937 12.4713 53.5698C10.7734 51.2468 9.83775 48.5875 9.6891 45.6666C9.5472 42.8553 10.1322 39.8562 11.4287 36.7489C14.0091 30.5653 19.2662 24.3559 26.23 19.266M25.8398 18.7358C11.627 29.1241 4.63516 43.964 11.9413 53.9599C19.2474 63.9559 32.2971 57.8427 46.5117 47.4531C60.7262 37.0635 70.7198 26.3342 63.4137 16.3382C56.1076 6.34234 40.0557 8.34804 25.8411 18.7376L25.8398 18.7358Z" fill="url(#paint1_linear_304_2067)"/>
<path opacity="0.5" d="M36.6084 36.8369C41.3016 39.9456 34.1452 25.66 29.2372 16.4691C28.4837 16.9735 27.7334 17.4973 26.9878 18.0423C25.9677 18.7879 24.9838 19.5534 24.0323 20.3334C27.9357 26.8636 32.9708 34.429 36.6084 36.8369Z" fill="#FFEFBC"/>
<path opacity="0.5" d="M47.762 23.0875C51.3849 25.3042 48.4796 17.8646 44.7854 10.0853C42.7551 10.5902 40.6611 11.2755 38.5283 12.1308C41.6445 16.9594 45.0257 21.4144 47.7633 23.0892L47.762 23.0875Z" fill="#FFEFBC"/>
<path opacity="0.5" d="M18.5987 42.5734C22.0712 44.971 18.7711 37.4708 14.8025 29.7176C13.6078 31.4252 12.5948 33.1582 11.786 34.8919C14.2191 38.3137 16.6362 41.2155 18.6005 42.5721L18.5987 42.5734Z" fill="#FFEFBC"/>
<defs>
<linearGradient id="paint0_linear_304_2067" x1="15.758" y1="25.266" x2="58.0099" y2="43.8566" gradientUnits="userSpaceOnUse">
<stop stop-color="#FF9035" stop-opacity="0.7"/>
<stop offset="0.15" stop-color="#F48B24" stop-opacity="0.8"/>
<stop offset="0.39" stop-color="#E8860F" stop-opacity="0.91"/>
<stop offset="0.66" stop-color="#E18303" stop-opacity="0.98"/>
<stop offset="0.99" stop-color="#DF8200"/>
</linearGradient>
<linearGradient id="paint1_linear_304_2067" x1="15.0826" y1="57.2131" x2="57.3873" y2="10.4455" gradientUnits="userSpaceOnUse">
<stop stop-color="white" stop-opacity="0.05"/>
<stop offset="0.18" stop-color="white" stop-opacity="0.8"/>
<stop offset="0.8" stop-color="white" stop-opacity="0.8"/>
<stop offset="1" stop-color="white" stop-opacity="0.05"/>
</linearGradient>
</defs>
</svg>
