<svg width="40" height="40" viewBox="0 0 40 40" fill="none" xmlns="http://www.w3.org/2000/svg">
<path d="M12.0548 0H20.8219L27.3973 3.28767L30.6849 7.12329L32.8767 12.0548V20.8219L30.137 26.8493L39.4521 36.1644L40 38.3562L38.3562 40L35.6164 38.9041L26.8493 30.137L20.8219 32.8767H12.0548L5.47945 29.589L2.19178 25.7534L0 20.8219V12.0548L3.28767 5.47945L7.12329 2.19178L12.0548 0ZM12.6027 3.83562L7.12329 7.12329L3.83562 12.6027V19.726L6.0274 24.1096L8.76712 26.8493L13.1507 29.0411H19.726L24.1096 26.8493L26.8493 24.1096L29.0411 19.726V13.1507L26.8493 8.76712L24.1096 6.0274L20.274 3.83562H12.6027Z" fill="white"/>
</svg>
