<svg width="241" height="71" viewBox="0 0 241 71" fill="none" xmlns="http://www.w3.org/2000/svg">
<g clip-path="url(#clip0_323_16)">
<path d="M59.4744 51.2009V41.4354C59.8775 41.4354 60.2521 41.4354 60.6267 41.4354C72.4467 41.4516 84.2625 41.472 96.0825 41.4679C96.8235 41.4679 97.5768 41.3541 98.3015 41.1875C99.6696 40.8746 100.631 40.0252 101.091 38.6963C101.701 36.9286 101.726 35.1323 101.18 33.332C100.606 31.4383 99.2054 30.5889 97.361 30.3369C96.7177 30.2475 96.0581 30.2557 95.4066 30.2557C88.1591 30.2516 80.9116 30.2719 73.6641 30.2435C70.8099 30.2313 68.0167 29.8615 65.4068 28.5651C62.2472 26.9964 60.1625 24.5134 59.2138 21.1526C58.0127 16.8855 57.9883 12.59 59.5803 8.40826C61.2008 4.14932 64.5029 1.78821 68.8392 0.845388C70.5411 0.475576 72.3286 0.341468 74.0753 0.33334C85.5003 0.288637 96.9294 0.308957 108.354 0.304893C108.676 0.304893 108.998 0.304893 109.409 0.304893V10.0501C108.928 10.0501 108.456 10.0501 107.98 10.0501C96.8154 10.0298 85.651 10.0054 74.4865 9.99724C71.2618 9.99724 69.5314 11.635 69.3237 14.8251C69.0794 18.633 70.8058 20.5267 74.6209 20.5389C82.3244 20.5633 90.032 20.5267 97.7356 20.5552C100.777 20.5633 103.692 21.177 106.31 22.8147C109.95 25.0945 111.718 28.5407 112.218 32.6696C112.621 35.9857 112.548 39.2978 111.38 42.5001C109.613 47.3361 106.017 49.9573 101.062 50.8229C99.5637 51.083 98.0165 51.1806 96.4896 51.1846C84.5068 51.2131 72.5281 51.2009 60.5453 51.2009C60.2236 51.2009 59.902 51.2009 59.4663 51.2009H59.4744Z" fill="#2B2A6C"/>
<path d="M169.233 34.8353C169.783 34.8353 170.361 34.8353 170.939 34.8353C173.976 34.8353 177.01 34.8231 180.047 34.8597C180.414 34.8638 180.955 35.0182 181.118 35.2864C183.097 38.57 186.212 40.0249 189.791 40.671C191.322 40.9474 192.897 41.0815 194.457 41.0937C201.15 41.1384 207.84 41.1343 214.534 41.1018C218.097 41.0856 221.553 40.5654 224.627 38.5741C226.961 37.0623 228.32 34.8394 229.057 32.2426C230.202 28.2234 230.259 24.1107 229.428 20.055C228.443 15.2312 225.979 11.5981 219.685 10.3586C217.718 9.97251 215.678 9.82621 213.667 9.80589C207.27 9.74087 200.87 9.78151 194.473 9.78558C191.517 9.78558 188.634 10.1595 185.902 11.3908C183.716 12.3743 182.071 13.9185 180.87 15.9749C180.707 16.2553 180.332 16.5966 180.051 16.5966C176.399 16.6373 172.747 16.6251 168.98 16.6251C169.502 14.1624 170.463 11.9841 171.765 9.96032C175.255 4.5513 180.446 1.81631 186.611 0.645916C191.623 -0.305031 196.692 0.0891651 201.745 0.0525902C206.053 0.0241431 210.36 0.0160154 214.672 0.0160154C219.102 0.0160154 223.455 0.483361 227.6 2.18613C234.265 4.92518 238.284 9.89936 240.018 16.812C241.126 21.2295 241.223 25.7282 240.71 30.2066C240.083 35.6847 238.259 40.6995 234.082 44.5805C230.653 47.7666 226.505 49.4165 221.961 50.2577C218.732 50.8551 215.479 50.8348 212.217 50.8307C205.556 50.8185 198.895 50.9283 192.238 50.7982C186.79 50.6926 181.586 49.5059 176.998 46.3483C172.991 43.5889 170.548 39.7404 169.176 35.1482C169.16 35.0954 169.2 35.0223 169.237 34.8394L169.233 34.8353Z" fill="#EC2326"/>
<path d="M0.0127004 0.690918H10.8229C10.8392 1.08511 10.8717 1.45899 10.8717 1.83287C10.8717 12.1592 10.8636 22.4896 10.888 32.8159C10.888 33.9456 10.998 35.0957 11.2219 36.2051C11.853 39.3425 13.3107 40.46 16.5272 41.0777C17.5167 41.2687 18.5346 41.3744 19.5403 41.3744C24.7601 41.3663 29.9799 41.3541 35.1998 41.2281C36.3398 41.1996 37.5165 40.8258 38.5874 40.3909C40.7412 39.5172 41.4701 37.5991 41.7795 35.4899C41.922 34.5268 41.975 33.5474 41.979 32.5761C41.9912 22.4123 41.9872 12.2486 41.9872 2.08076C41.9872 1.65812 41.9872 1.23954 41.9872 0.731557H52.834C52.8503 1.07699 52.8829 1.42648 52.8829 1.77597C52.8829 12.0373 52.8992 22.3026 52.8829 32.5639C52.8747 36.0223 52.5816 39.444 51.2583 42.7073C49.6907 46.568 46.8202 48.9413 42.8789 50.1158C40.1346 50.9326 37.3089 51.1887 34.4709 51.1887C28.1395 51.1887 21.8082 51.1846 15.4768 51.0302C12.537 50.9611 9.65026 50.3434 7.02813 48.8926C3.62017 47.0029 1.62914 44.02 0.8596 40.2893C0.391362 38.0095 0.0697033 35.6606 0.0534167 33.3401C-0.0320876 22.7822 0.0127004 12.2283 0.0127004 1.67031C0.0127004 1.38178 0.0127004 1.08918 0.0127004 0.690918Z" fill="#2B2A6C"/>
<path d="M164.718 0.422789V9.99728C164.36 10.0176 164.047 10.046 163.733 10.046C156.551 10.046 149.372 10.0135 142.19 10.0623C139.552 10.0826 136.934 10.359 134.417 11.3099C131.062 12.5778 128.733 14.8333 127.638 18.2388C126.111 22.9854 126.14 27.8093 127.434 32.5762C128.725 37.3309 132.121 39.9562 136.852 40.8543C138.762 41.216 140.732 41.3907 142.679 41.407C149.828 41.472 156.974 41.4314 164.124 41.4314C164.507 41.4314 164.889 41.4314 165.325 41.4314V51.1115C165.069 51.144 164.849 51.1928 164.629 51.1928C156.665 51.1928 148.701 51.2253 140.736 51.1562C136.205 51.1156 131.775 50.4085 127.63 48.4538C121.881 45.7391 118.241 41.2119 116.636 35.1324C114.865 28.4188 114.869 21.6565 117.044 15.0284C119.446 7.71338 124.698 3.38129 132.027 1.39812C136.754 0.117998 141.587 0.300872 146.412 0.341511C152.19 0.390278 157.968 0.394341 163.745 0.418725C164.034 0.418725 164.323 0.418725 164.718 0.418725V0.422789Z" fill="#2B2A6C"/>
<path d="M203.769 30.4545C203.268 30.4545 202.886 30.4545 202.503 30.4545C184.779 30.4545 167.059 30.4504 149.335 30.4789C148.362 30.4789 148.13 30.17 148.155 29.2556C148.216 26.9108 148.228 24.5619 148.155 22.2211C148.122 21.2214 148.419 20.9653 149.409 20.9653C163.313 20.9978 177.218 20.9897 191.119 20.9897C195.003 20.9897 198.887 21.006 202.772 20.9775C203.505 20.9735 203.806 21.1279 203.794 21.9447C203.741 24.7122 203.773 27.4757 203.773 30.4504L203.769 30.4545Z" fill="#EC2326"/>
<path d="M216.436 59.6579C215.898 59.9993 215.605 60.3244 215.312 60.3285C215.068 60.3285 214.819 59.9546 214.575 59.7433C214.807 59.4832 215.015 59.0483 215.28 59.0158C215.552 58.9793 215.878 59.3287 216.44 59.6579H216.436Z" fill="#5C5C5C"/>
<path d="M40.3418 59.8935C40.0405 60.052 39.7229 60.3527 39.442 60.3242C39.2099 60.2998 38.8475 59.8691 38.8638 59.6415C38.8801 59.4058 39.2791 59.0197 39.5153 59.0157C39.7962 59.0116 40.0812 59.3448 40.3622 59.5318C40.354 59.6537 40.35 59.7756 40.3418 59.8935Z" fill="#5C5C5C"/>
<path d="M125.312 61.6046H126.261C126.314 61.8972 126.367 62.1776 126.42 62.458C126.481 62.4499 126.567 62.4661 126.587 62.4377C127.69 60.7105 130.223 61.4217 130.948 62.9213C131.664 64.4046 131.652 65.8798 130.838 67.3062C129.934 68.8789 127.971 69.0049 126.448 67.5175V70.923H125.321V61.6046H125.312ZM126.379 64.9898C126.379 66.6072 127.12 67.6313 128.309 67.6557C129.478 67.6801 130.312 66.6682 130.353 65.1808C130.398 63.5105 129.669 62.4458 128.456 62.4011C127.145 62.3523 126.383 63.3033 126.383 64.9898H126.379Z" fill="#5C5C5C"/>
<path d="M9.05523 59.2922H10.1953C10.1953 60.1944 10.1953 61.06 10.1953 61.9256C10.1953 62.966 10.1871 64.0104 10.1994 65.0508C10.2238 66.7088 11.0625 67.5704 12.6342 67.5622C14.2099 67.5541 15.1301 66.6113 15.1383 64.9654C15.1464 63.1123 15.1383 61.2592 15.1383 59.3126C15.4884 59.2882 15.7897 59.2679 16.258 59.2354C16.258 59.784 16.258 60.2595 16.258 60.7309C16.258 62.2304 16.2946 63.7259 16.2457 65.2255C16.1806 67.3387 14.6985 68.6717 12.5324 68.631C10.407 68.5904 9.06745 67.2453 9.05523 65.1199C9.04302 63.2017 9.05523 61.2876 9.05523 59.2841V59.2922Z" fill="#5C5C5C"/>
<path d="M111.896 61.6085C111.933 61.9174 111.965 62.1694 111.998 62.4213C112.071 62.4254 112.165 62.4579 112.185 62.4335C112.861 61.6045 113.692 61.2225 114.767 61.511C115.952 61.828 116.697 62.6408 116.929 63.7908C117.088 64.5711 117.1 65.4326 116.937 66.2088C116.501 68.2855 114.066 69.6062 112.063 67.5459V70.9514C111.652 70.9717 111.367 70.9839 111.013 71.0002V61.6126H111.896V61.6085ZM116.074 65.0872C115.992 64.6402 115.964 64.246 115.854 63.8802C115.549 62.8683 114.82 62.3522 113.847 62.4051C112.943 62.4579 112.267 63.0553 112.132 64.0834C112.043 64.7458 112.039 65.4448 112.165 66.0951C112.332 66.9485 112.898 67.5499 113.818 67.6393C114.738 67.7287 115.382 67.2573 115.732 66.4364C115.919 66.0016 115.972 65.5099 116.078 65.0831L116.074 65.0872Z" fill="#5C5C5C"/>
<path d="M201.016 62.958C201.574 61.8201 202.877 61.2064 204.188 61.4625C205.585 61.7347 206.155 62.4053 206.183 63.9089C206.212 65.3719 206.191 66.8349 206.191 68.367C205.874 68.4036 205.601 68.432 205.247 68.4727C205.19 68.2166 205.141 67.9972 205.072 67.7046C204.094 68.623 203.056 68.9115 201.884 68.367C201.069 67.989 200.658 67.3307 200.67 66.4204C200.682 65.5507 201.179 65.0062 201.949 64.7745C202.661 64.5632 203.427 64.5429 204.143 64.3438C204.51 64.2381 204.815 63.917 205.149 63.6935C204.844 63.275 204.575 62.5435 204.233 62.5069C203.594 62.4378 202.906 62.7629 202.246 62.9458C201.867 63.0514 201.501 63.1977 201.126 63.3237C201.09 63.2018 201.053 63.0799 201.016 62.958ZM205.063 65.0915C204.241 65.2378 203.48 65.3678 202.722 65.5101C202.103 65.6239 201.599 65.9978 201.806 66.6155C201.945 67.034 202.462 67.5136 202.893 67.6111C204.355 67.9362 205.271 66.8715 205.063 65.0956V65.0915Z" fill="#5C5C5C"/>
<path d="M192.413 68.3993H191.419C191.419 67.1557 191.419 65.9609 191.419 64.7621C191.419 63.1162 190.918 62.401 189.766 62.3969C188.516 62.3969 187.922 63.1813 187.922 64.8393C187.922 66.0056 187.922 67.172 187.922 68.3911H186.892V59.3084C187.234 59.2921 187.527 59.2799 187.922 59.2637V62.4335C188.418 62.1125 188.805 61.763 189.261 61.5841C190.694 61.0233 192.27 61.8889 192.384 63.4007C192.506 65.0466 192.413 66.7046 192.413 68.3993Z" fill="#5C5C5C"/>
<path d="M65.46 61.6614C64.4665 64.3273 63.4974 66.977 62.4836 69.6063C62.0154 70.8173 61.3313 71.118 59.609 70.8498C59.9551 70.5003 60.1505 70.1224 60.4193 70.0574C61.5064 69.7892 62.0235 68.9479 61.6367 67.8995C60.9364 65.9813 60.2279 64.0632 59.5235 62.145C59.4706 61.9987 59.4421 61.8402 59.4014 61.6777C60.1953 61.3363 60.5374 61.6777 60.7654 62.397C61.2377 63.8762 61.767 65.3351 62.4917 66.8225C63.0048 65.3677 63.5544 63.9209 64.0145 62.4457C64.2385 61.7305 64.5357 61.3485 65.4518 61.6655L65.46 61.6614Z" fill="#5C5C5C"/>
<path d="M149.184 70.6831C149.437 70.4637 149.657 70.1182 149.942 70.0532C150.923 69.8175 151.464 68.9194 151.11 67.9441C150.426 66.0544 149.73 64.1687 149.038 62.2831C148.964 62.0799 148.916 61.8645 148.854 61.6572C149.677 61.3362 150.007 61.706 150.231 62.4172C150.699 63.8883 151.232 65.3432 151.961 66.8265C152.474 65.3472 153.016 63.8761 153.488 62.3847C153.704 61.706 154.005 61.3606 154.881 61.6776C154.384 63.0552 153.895 64.441 153.386 65.8146C152.938 67.0297 152.486 68.2448 152.01 69.4518C151.481 70.7766 150.915 71.0854 149.184 70.6791V70.6831Z" fill="#5C5C5C"/>
<path d="M229.848 68.4075H228.96C228.927 68.3059 228.862 68.184 228.862 68.0661C228.854 66.8307 228.862 65.5953 228.85 64.3599C228.838 63.0757 228.252 62.3929 227.197 62.397C226.146 62.4051 225.503 63.096 225.479 64.3355C225.45 65.6644 225.471 66.9892 225.471 68.3831H224.416V61.6574C225.145 61.3851 225.483 61.6086 225.418 62.267C226.106 61.9865 226.774 61.5436 227.482 61.4623C228.813 61.3119 229.778 62.2344 229.831 63.6202C229.892 65.1767 229.844 66.7372 229.844 68.4075H229.848Z" fill="#5C5C5C"/>
<path d="M88.5378 63.0555C88.2732 63.149 88.0085 63.2424 87.7113 63.3481C87.2634 62.4662 86.5061 62.2062 85.6551 62.4459C85.2887 62.5516 84.8082 62.9702 84.7634 63.2953C84.7268 63.5919 85.1421 64.0999 85.4841 64.2584C86.1519 64.5713 86.9295 64.6364 87.6095 64.9249C88.9206 65.4776 89.1364 66.9853 88.0818 67.92C87.0883 68.8018 85.0729 68.8547 84.0998 67.9687C83.7903 67.6883 83.6152 67.2657 83.375 66.9081C83.4605 66.7983 83.5419 66.6886 83.6274 66.5748C83.9654 66.7293 84.3766 66.8105 84.6331 67.0544C85.2642 67.6599 86.1966 67.9118 86.9417 67.4526C87.2471 67.2657 87.5606 66.8309 87.5688 66.4976C87.5769 66.2335 87.182 65.8393 86.8766 65.7092C86.2577 65.4451 85.5737 65.3394 84.9222 65.1403C84.116 64.8964 83.6722 64.356 83.6559 63.4944C83.6397 62.5963 84.1283 62.0395 84.9019 61.6982C86.445 61.0195 87.9067 61.5519 88.5378 63.0474V63.0555Z" fill="#5C5C5C"/>
<path d="M25.9279 68.3995H24.9873V61.6494C25.6754 61.4015 26.0419 61.5843 25.9686 62.515C26.8236 61.6656 27.6461 61.2105 28.7536 61.5356C29.7674 61.8322 30.3252 62.5068 30.37 63.4944C30.4433 65.1077 30.3904 66.7292 30.3904 68.3954H29.3643C29.3643 67.0177 29.3806 65.6645 29.3602 64.3112C29.3399 62.9173 28.5744 62.202 27.3896 62.4215C26.563 62.5759 26.0215 63.2586 25.9889 64.2787C25.9564 65.319 25.9849 66.3594 25.9767 67.3997C25.9767 67.7167 25.9482 68.0337 25.9319 68.3954L25.9279 68.3995Z" fill="#5C5C5C"/>
<path d="M102.332 61.5435V68.383C102.035 68.4073 101.758 68.4317 101.408 68.4602C101.367 68.0985 101.335 67.7937 101.274 67.2573C101.017 67.5864 100.879 67.8425 100.675 68.0172C99.36 69.1307 97.2264 68.4073 97.0717 66.7005C96.9211 65.0303 97.0391 63.3356 97.0391 61.6004H98.0082C98.0082 62.9455 98 64.2419 98.0082 65.5382C98.0163 66.8387 98.5416 67.497 99.5391 67.497C100.594 67.497 101.322 66.6924 101.335 65.4935C101.347 64.2297 101.335 62.9617 101.335 61.6247C101.673 61.5963 101.945 61.576 102.324 61.5435H102.332Z" fill="#5C5C5C"/>
<path d="M178.488 63.7178C178.117 63.5106 177.669 63.3765 177.392 63.0798C176.476 62.0964 175.002 62.1736 174.343 63.3358C173.7 64.4656 173.704 65.6441 174.379 66.7617C175.059 67.8793 176.468 67.9524 177.376 67.0015C177.657 66.7089 178.077 66.5422 178.614 66.2049C178.402 67.8102 177.278 68.6839 175.894 68.6311C174.245 68.5661 172.987 67.2778 172.844 65.5141C172.673 63.3643 173.712 61.7834 175.507 61.4583C176.888 61.2104 178.203 62.0354 178.488 63.7219V63.7178Z" fill="#5C5C5C"/>
<path d="M49.1076 59.9058H50.0685C50.1133 60.4137 50.1622 60.9177 50.1947 61.3159C50.5938 61.8524 51.5913 61.064 51.5465 62.0677C51.5384 62.2506 50.7933 62.405 50.211 62.6448C50.211 63.9574 50.1581 65.4651 50.2599 66.9647C50.2802 67.2289 50.9602 67.4483 51.3348 67.6881L51.5099 67.5174C51.575 67.7856 51.6361 68.0538 51.742 68.4887C51.1882 68.4602 50.6141 68.5984 50.2802 68.3789C49.7876 68.0498 49.3886 67.5093 49.0954 66.9769C48.9285 66.6762 49.0547 66.2129 49.0547 65.8228C49.0547 64.7499 49.0547 63.677 49.0547 62.5473C48.729 62.4741 48.4317 62.405 48.1304 62.34C47.7518 61.45 48.5132 61.6085 48.9977 61.4663C49.0343 60.9624 49.071 60.4584 49.1076 59.918V59.9058Z" fill="#5C5C5C"/>
<path d="M140.667 68.4117H139.755V59.333H140.667V68.4117Z" fill="#5C5C5C"/>
<path d="M39.0713 61.5923H39.9548V68.3871C39.6942 68.4115 39.4214 68.4359 39.0713 68.4643V61.5923Z" fill="#5C5C5C"/>
<path d="M215.728 68.4035H214.812V61.6127C215.097 61.5924 215.369 61.5761 215.728 61.5518V68.4035Z" fill="#5C5C5C"/>
</g>
<defs>
<clipPath id="clip0_323_16">
<rect width="241" height="71" fill="white"/>
</clipPath>
</defs>
</svg>
