<svg width="40" height="40" viewBox="0 0 40 40" fill="none" xmlns="http://www.w3.org/2000/svg">
<path d="M2.6665 14.6666H37.3332V20H35.9998L34.6665 29.3333L33.7776 33.7777L32.8887 34.6666H7.11095L6.22206 33.7777L3.99984 21.3333V20H2.6665V14.6666ZM12.4443 21.7777L11.9998 22.6666V29.3333L12.4443 30.2222H14.2221L14.6665 29.3333V22.6666L14.2221 21.7777H12.4443ZM19.1109 21.7777L18.6665 22.6666V29.3333L19.1109 30.2222H20.8887L21.3332 29.3333V22.6666L20.8887 21.7777H19.1109ZM25.7776 21.7777L25.3332 22.6666V29.3333L25.7776 30.2222H27.5554L27.9998 29.3333V22.6666L27.5554 21.7777H25.7776Z" fill="white"/>
<path d="M16.0001 4H24.0001L24.8889 4.88889L31.5556 5.33333L33.7778 7.55556L34.2223 12H31.1112L30.6667 8.44444L22.6667 8L21.7778 7.11111H18.2223L17.3334 8L9.33339 8.44444L8.88894 12H5.77783L6.22228 7.55556L8.4445 5.33333L15.1112 4.88889L16.0001 4Z" fill="white"/>
</svg>
