<svg width="229" height="127" viewBox="0 0 229 127" fill="none" xmlns="http://www.w3.org/2000/svg">
<path d="M100.86 0H177.12L191.88 3.69L209.1 12.3L217.71 20.91L225.09 34.44L228.78 49.2V75.03L226.32 87.33L220.17 102.09L209.1 114.39L199.26 120.54L184.5 125.46L177.12 126.69H98.3999L83.6399 123L70.1099 115.62L60.2699 105.78L54.1199 95.94L51.6599 86.1H81.1799L84.8699 91.02V93.48L89.7899 95.94L97.1699 99.63L107.01 100.86H173.43L186.96 95.94L195.57 88.56L200.49 72.57V52.89L195.57 39.36L189.42 31.98L175.89 27.06L172.2 25.83H103.32L88.5599 31.98L79.9499 41.82H51.6599L52.8899 34.44L57.8099 24.6L68.8799 12.3L78.7199 6.15L94.7099 1.23L100.86 0Z" fill="#FBFBFD"/>
<path d="M0 52.8901H137.76V76.2601H0V52.8901Z" fill="#FCFCFD"/>
</svg>
