<svg width="24" height="24" viewBox="0 0 24 24" fill="none" xmlns="http://www.w3.org/2000/svg">
  <path d="M3.75 6.75C3.75 5.92157 4.42157 5.25 5.25 5.25H13.5C14.3284 5.25 15 5.92157 15 6.75V15H4.5C4.08579 15 3.75 14.6642 3.75 14.25V6.75Z" fill="#64748B"/>
  <path d="M15 8.25H18.1716C18.6911 8.25 19.1818 8.48962 19.5012 8.89911L21.3296 11.2429C21.5602 11.5385 21.6854 11.9031 21.6854 12.2779V14.25C21.6854 14.6642 21.3496 15 20.9354 15H15V8.25Z" fill="#64748B"/>
  <path d="M7.5 18.75C8.74264 18.75 9.75 17.7426 9.75 16.5C9.75 15.2574 8.74264 14.25 7.5 14.25C6.25736 14.25 5.25 15.2574 5.25 16.5C5.25 17.7426 6.25736 18.75 7.5 18.75Z" fill="#1E293B"/>
  <path d="M17.25 18.75C18.4926 18.75 19.5 17.7426 19.5 16.5C19.5 15.2574 18.4926 14.25 17.25 14.25C16.0074 14.25 15 15.2574 15 16.5C15 17.7426 16.0074 18.75 17.25 18.75Z" fill="#1E293B"/>
  <circle cx="7.5" cy="16.5" r="0.9" fill="white"/>
  <circle cx="17.25" cy="16.5" r="0.9" fill="white"/>
</svg>
