<svg width="555" height="35" viewBox="0 0 555 35" fill="none" xmlns="http://www.w3.org/2000/svg">
<path d="M15.1523 1.40625H18.5273V18.7207C18.5273 20.6426 18.0996 22.2422 17.2441 23.5195C16.3887 24.7969 15.252 25.7578 13.834 26.4023C12.4277 27.0352 10.8984 27.3516 9.24609 27.3516C7.51172 27.3516 5.94141 27.0352 4.53516 26.4023C3.14062 25.7578 2.0332 24.7969 1.21289 23.5195C0.404297 22.2422 0 20.6426 0 18.7207V1.40625H3.35742V18.7207C3.35742 20.0566 3.60352 21.1582 4.0957 22.0254C4.58789 22.8926 5.27344 23.5371 6.15234 23.959C7.04297 24.3809 8.07422 24.5918 9.24609 24.5918C10.4297 24.5918 11.4609 24.3809 12.3398 23.959C13.2305 23.5371 13.9219 22.8926 14.4141 22.0254C14.9062 21.1582 15.1523 20.0566 15.1523 18.7207V1.40625ZM42.4533 12.041V27H39.2013V7.98047H42.2775L42.4533 12.041ZM41.6798 16.7695L40.3263 16.7168C40.338 15.416 40.5314 14.2148 40.9064 13.1133C41.2814 12 41.8088 11.0332 42.4884 10.2129C43.1681 9.39258 43.9767 8.75977 44.9142 8.31445C45.8634 7.85742 46.9123 7.62891 48.0607 7.62891C48.9982 7.62891 49.842 7.75781 50.592 8.01562C51.342 8.26172 51.9806 8.66016 52.508 9.21094C53.047 9.76172 53.4572 10.4766 53.7384 11.3555C54.0197 12.2227 54.1603 13.2832 54.1603 14.5371V27H50.8908V14.502C50.8908 13.5059 50.7443 12.709 50.4513 12.1113C50.1584 11.502 49.7306 11.0625 49.1681 10.793C48.6056 10.5117 47.9142 10.3711 47.0939 10.3711C46.2853 10.3711 45.547 10.541 44.8791 10.8809C44.2228 11.2207 43.6545 11.6895 43.174 12.2871C42.7052 12.8848 42.3361 13.5703 42.0666 14.3438C41.8088 15.1055 41.6798 15.9141 41.6798 16.7695ZM78.473 7.98047V27H75.2034V7.98047H78.473ZM74.9573 2.93555C74.9573 2.4082 75.1155 1.96289 75.432 1.59961C75.7601 1.23633 76.2405 1.05469 76.8734 1.05469C77.4945 1.05469 77.9691 1.23633 78.2972 1.59961C78.637 1.96289 78.807 2.4082 78.807 2.93555C78.807 3.43945 78.637 3.87305 78.2972 4.23633C77.9691 4.58789 77.4945 4.76367 76.8734 4.76367C76.2405 4.76367 75.7601 4.58789 75.432 4.23633C75.1155 3.87305 74.9573 3.43945 74.9573 2.93555ZM107.497 7.98047V10.4766H97.2134V7.98047H107.497ZM100.694 3.35742H103.946V22.2891C103.946 22.9336 104.045 23.4199 104.245 23.748C104.444 24.0762 104.702 24.293 105.018 24.3984C105.334 24.5039 105.674 24.5566 106.038 24.5566C106.307 24.5566 106.588 24.5332 106.881 24.4863C107.186 24.4277 107.415 24.3809 107.567 24.3457L107.584 27C107.327 27.082 106.987 27.1582 106.565 27.2285C106.155 27.3105 105.657 27.3516 105.071 27.3516C104.274 27.3516 103.541 27.1934 102.874 26.877C102.206 26.5605 101.672 26.0332 101.274 25.2949C100.887 24.5449 100.694 23.5371 100.694 22.2715V3.35742ZM132.495 25.0312L137.786 7.98047H141.266L133.637 29.9355C133.462 30.4043 133.227 30.9082 132.934 31.4473C132.653 31.998 132.29 32.5195 131.844 33.0117C131.399 33.5039 130.86 33.9023 130.227 34.207C129.606 34.5234 128.862 34.6816 127.995 34.6816C127.737 34.6816 127.409 34.6465 127.01 34.5762C126.612 34.5059 126.331 34.4473 126.167 34.4004L126.149 31.7637C126.243 31.7754 126.389 31.7871 126.589 31.7988C126.799 31.8223 126.946 31.834 127.028 31.834C127.766 31.834 128.393 31.7344 128.909 31.5352C129.424 31.3477 129.858 31.0254 130.21 30.5684C130.573 30.123 130.883 29.5078 131.141 28.7227L132.495 25.0312ZM128.61 7.98047L133.549 22.7461L134.393 26.1738L132.055 27.3691L125.059 7.98047H128.61ZM195.886 21.9551C195.886 21.4863 195.78 21.0527 195.569 20.6543C195.37 20.2441 194.954 19.875 194.321 19.5469C193.7 19.207 192.763 18.9141 191.509 18.668C190.454 18.4453 189.499 18.1816 188.644 17.877C187.8 17.5723 187.079 17.2031 186.481 16.7695C185.895 16.3359 185.444 15.8262 185.128 15.2402C184.811 14.6543 184.653 13.9688 184.653 13.1836C184.653 12.4336 184.817 11.7246 185.145 11.0566C185.485 10.3887 185.96 9.79688 186.569 9.28125C187.19 8.76563 187.935 8.36133 188.802 8.06836C189.669 7.77539 190.636 7.62891 191.702 7.62891C193.226 7.62891 194.526 7.89844 195.604 8.4375C196.683 8.97656 197.509 9.69727 198.083 10.5996C198.657 11.4902 198.944 12.4805 198.944 13.5703H195.692C195.692 13.043 195.534 12.5332 195.218 12.041C194.913 11.5371 194.462 11.1211 193.864 10.793C193.278 10.4648 192.558 10.3008 191.702 10.3008C190.8 10.3008 190.067 10.4414 189.505 10.7227C188.954 10.9922 188.55 11.3379 188.292 11.7598C188.046 12.1816 187.923 12.627 187.923 13.0957C187.923 13.4473 187.981 13.7637 188.099 14.0449C188.228 14.3145 188.45 14.5664 188.767 14.8008C189.083 15.0234 189.528 15.2344 190.103 15.4336C190.677 15.6328 191.409 15.832 192.3 16.0312C193.858 16.3828 195.142 16.8047 196.149 17.2969C197.157 17.7891 197.907 18.3926 198.399 19.1074C198.892 19.8223 199.138 20.6895 199.138 21.709C199.138 22.541 198.962 23.3027 198.61 23.9941C198.27 24.6855 197.772 25.2832 197.116 25.7871C196.472 26.2793 195.698 26.666 194.796 26.9473C193.905 27.2168 192.903 27.3516 191.79 27.3516C190.114 27.3516 188.696 27.0527 187.536 26.4551C186.376 25.8574 185.497 25.084 184.899 24.1348C184.302 23.1855 184.003 22.1836 184.003 21.1289H187.272C187.319 22.0195 187.577 22.7285 188.046 23.2559C188.515 23.7715 189.089 24.1406 189.769 24.3633C190.448 24.5742 191.122 24.6797 191.79 24.6797C192.681 24.6797 193.425 24.5625 194.022 24.3281C194.632 24.0938 195.095 23.7715 195.411 23.3613C195.728 22.9512 195.886 22.4824 195.886 21.9551ZM230.886 22.6055V7.98047H234.155V27H231.044L230.886 22.6055ZM231.501 18.5977L232.855 18.5625C232.855 19.8281 232.72 21 232.45 22.0781C232.193 23.1445 231.771 24.0703 231.185 24.8555C230.599 25.6406 229.831 26.2559 228.882 26.7012C227.933 27.1348 226.778 27.3516 225.419 27.3516C224.493 27.3516 223.644 27.2168 222.87 26.9473C222.109 26.6777 221.452 26.2617 220.901 25.6992C220.351 25.1367 219.923 24.4043 219.618 23.502C219.325 22.5996 219.179 21.5156 219.179 20.25V7.98047H222.431V20.2852C222.431 21.1406 222.525 21.8496 222.712 22.4121C222.911 22.9629 223.175 23.4023 223.503 23.7305C223.843 24.0469 224.218 24.2695 224.628 24.3984C225.05 24.5273 225.484 24.5918 225.929 24.5918C227.312 24.5918 228.407 24.3281 229.216 23.8008C230.025 23.2617 230.605 22.541 230.956 21.6387C231.319 20.7246 231.501 19.7109 231.501 18.5977ZM258.204 11.6367V34.3125H254.935V7.98047H257.923L258.204 11.6367ZM271.019 17.332V17.7012C271.019 19.084 270.855 20.3672 270.527 21.5508C270.199 22.7227 269.718 23.7422 269.085 24.6094C268.464 25.4766 267.697 26.1504 266.783 26.6309C265.868 27.1113 264.82 27.3516 263.636 27.3516C262.429 27.3516 261.363 27.1523 260.437 26.7539C259.511 26.3555 258.726 25.7754 258.081 25.0137C257.437 24.252 256.921 23.3379 256.534 22.2715C256.159 21.2051 255.902 20.0039 255.761 18.668V16.6992C255.902 15.293 256.165 14.0332 256.552 12.9199C256.939 11.8066 257.449 10.8574 258.081 10.0723C258.726 9.27539 259.505 8.67187 260.419 8.26172C261.333 7.83984 262.388 7.62891 263.583 7.62891C264.779 7.62891 265.839 7.86328 266.765 8.33203C267.691 8.78906 268.47 9.44531 269.103 10.3008C269.736 11.1562 270.21 12.1816 270.527 13.377C270.855 14.5605 271.019 15.8789 271.019 17.332ZM267.749 17.7012V17.332C267.749 16.3828 267.65 15.4922 267.45 14.6602C267.251 13.8164 266.941 13.0781 266.519 12.4453C266.109 11.8008 265.581 11.2969 264.937 10.9336C264.292 10.5586 263.525 10.3711 262.634 10.3711C261.814 10.3711 261.099 10.5117 260.49 10.793C259.892 11.0742 259.382 11.4551 258.96 11.9355C258.538 12.4043 258.193 12.9434 257.923 13.5527C257.665 14.1504 257.472 14.7715 257.343 15.416V19.9688C257.577 20.7891 257.906 21.5625 258.327 22.2891C258.749 23.0039 259.312 23.584 260.015 24.0293C260.718 24.4629 261.603 24.6797 262.669 24.6797C263.548 24.6797 264.304 24.498 264.937 24.1348C265.581 23.7598 266.109 23.25 266.519 22.6055C266.941 21.9609 267.251 21.2227 267.45 20.3906C267.65 19.5469 267.749 18.6504 267.749 17.7012ZM294.259 11.6367V34.3125H290.99V7.98047H293.978L294.259 11.6367ZM307.074 17.332V17.7012C307.074 19.084 306.91 20.3672 306.581 21.5508C306.253 22.7227 305.773 23.7422 305.14 24.6094C304.519 25.4766 303.751 26.1504 302.837 26.6309C301.923 27.1113 300.874 27.3516 299.691 27.3516C298.484 27.3516 297.417 27.1523 296.492 26.7539C295.566 26.3555 294.781 25.7754 294.136 25.0137C293.492 24.252 292.976 23.3379 292.589 22.2715C292.214 21.2051 291.956 20.0039 291.816 18.668V16.6992C291.956 15.293 292.22 14.0332 292.607 12.9199C292.994 11.8066 293.503 10.8574 294.136 10.0723C294.781 9.27539 295.56 8.67187 296.474 8.26172C297.388 7.83984 298.443 7.62891 299.638 7.62891C300.833 7.62891 301.894 7.86328 302.82 8.33203C303.746 8.78906 304.525 9.44531 305.158 10.3008C305.79 11.1562 306.265 12.1816 306.581 13.377C306.91 14.5605 307.074 15.8789 307.074 17.332ZM303.804 17.7012V17.332C303.804 16.3828 303.705 15.4922 303.505 14.6602C303.306 13.8164 302.996 13.0781 302.574 12.4453C302.164 11.8008 301.636 11.2969 300.992 10.9336C300.347 10.5586 299.58 10.3711 298.689 10.3711C297.869 10.3711 297.154 10.5117 296.544 10.793C295.947 11.0742 295.437 11.4551 295.015 11.9355C294.593 12.4043 294.247 12.9434 293.978 13.5527C293.72 14.1504 293.527 14.7715 293.398 15.416V19.9688C293.632 20.7891 293.96 21.5625 294.382 22.2891C294.804 23.0039 295.367 23.584 296.07 24.0293C296.773 24.4629 297.658 24.6797 298.724 24.6797C299.603 24.6797 300.359 24.498 300.992 24.1348C301.636 23.7598 302.164 23.25 302.574 22.6055C302.996 21.9609 303.306 21.2227 303.505 20.3906C303.705 19.5469 303.804 18.6504 303.804 17.7012ZM330.595 0V27H327.326V0H330.595ZM357 25.0312L362.291 7.98047H365.771L358.142 29.9355C357.967 30.4043 357.732 30.9082 357.439 31.4473C357.158 31.998 356.795 32.5195 356.349 33.0117C355.904 33.5039 355.365 33.9023 354.732 34.207C354.111 34.5234 353.367 34.6816 352.5 34.6816C352.242 34.6816 351.914 34.6465 351.515 34.5762C351.117 34.5059 350.836 34.4473 350.672 34.4004L350.654 31.7637C350.748 31.7754 350.894 31.7871 351.094 31.7988C351.304 31.8223 351.451 31.834 351.533 31.834C352.271 31.834 352.898 31.7344 353.414 31.5352C353.929 31.3477 354.363 31.0254 354.715 30.5684C355.078 30.123 355.388 29.5078 355.646 28.7227L357 25.0312ZM353.115 7.98047L358.054 22.7461L358.898 26.1738L356.56 27.3691L349.564 7.98047H353.115ZM416.928 24.6797C417.701 24.6797 418.416 24.5215 419.072 24.2051C419.729 23.8887 420.268 23.4551 420.69 22.9043C421.111 22.3418 421.352 21.7031 421.41 20.9883H424.504C424.445 22.1133 424.065 23.1621 423.361 24.1348C422.67 25.0957 421.762 25.875 420.637 26.4727C419.512 27.0586 418.275 27.3516 416.928 27.3516C415.498 27.3516 414.25 27.0996 413.184 26.5957C412.129 26.0918 411.25 25.4004 410.547 24.5215C409.856 23.6426 409.334 22.6348 408.983 21.498C408.643 20.3496 408.473 19.1367 408.473 17.8594V17.1211C408.473 15.8438 408.643 14.6367 408.983 13.5C409.334 12.3516 409.856 11.3379 410.547 10.459C411.25 9.58008 412.129 8.88867 413.184 8.38477C414.25 7.88086 415.498 7.62891 416.928 7.62891C418.416 7.62891 419.717 7.93359 420.83 8.54297C421.943 9.14062 422.816 9.96094 423.449 11.0039C424.094 12.0352 424.445 13.207 424.504 14.5195H421.41C421.352 13.7344 421.129 13.0254 420.742 12.3926C420.367 11.7598 419.852 11.2559 419.195 10.8809C418.551 10.4941 417.795 10.3008 416.928 10.3008C415.932 10.3008 415.094 10.5 414.414 10.8984C413.746 11.2852 413.213 11.8125 412.815 12.4805C412.428 13.1367 412.147 13.8691 411.971 14.6777C411.807 15.4746 411.725 16.2891 411.725 17.1211V17.8594C411.725 18.6914 411.807 19.5117 411.971 20.3203C412.135 21.1289 412.41 21.8613 412.797 22.5176C413.195 23.1738 413.729 23.7012 414.397 24.0996C415.076 24.4863 415.92 24.6797 416.928 24.6797ZM447.252 0V27H444V0H447.252ZM446.479 16.7695L445.125 16.7168C445.137 15.416 445.33 14.2148 445.705 13.1133C446.08 12 446.608 11.0332 447.287 10.2129C447.967 9.39258 448.776 8.75977 449.713 8.31445C450.662 7.85742 451.711 7.62891 452.86 7.62891C453.797 7.62891 454.641 7.75781 455.391 8.01562C456.141 8.26172 456.78 8.66016 457.307 9.21094C457.846 9.76172 458.256 10.4766 458.537 11.3555C458.819 12.2227 458.959 13.2832 458.959 14.5371V27H455.69V14.502C455.69 13.5059 455.543 12.709 455.25 12.1113C454.957 11.502 454.53 11.0625 453.967 10.793C453.405 10.5117 452.713 10.3711 451.893 10.3711C451.084 10.3711 450.346 10.541 449.678 10.8809C449.022 11.2207 448.453 11.6895 447.973 12.2871C447.504 12.8848 447.135 13.5703 446.865 14.3438C446.608 15.1055 446.479 15.9141 446.479 16.7695ZM490.883 23.748V13.957C490.883 13.207 490.731 12.5566 490.426 12.0059C490.133 11.4434 489.688 11.0098 489.09 10.7051C488.493 10.4004 487.754 10.248 486.875 10.248C486.055 10.248 485.334 10.3887 484.713 10.6699C484.104 10.9512 483.623 11.3203 483.272 11.7773C482.932 12.2344 482.762 12.7266 482.762 13.2539H479.51C479.51 12.5742 479.686 11.9004 480.038 11.2324C480.389 10.5645 480.893 9.96094 481.549 9.42188C482.217 8.87109 483.014 8.4375 483.94 8.12109C484.877 7.79297 485.92 7.62891 487.069 7.62891C488.452 7.62891 489.67 7.86328 490.725 8.33203C491.791 8.80078 492.623 9.50977 493.221 10.459C493.83 11.3965 494.135 12.5742 494.135 13.9922V22.8516C494.135 23.4844 494.188 24.1582 494.293 24.873C494.411 25.5879 494.58 26.2031 494.803 26.7188V27H491.411C491.246 26.625 491.118 26.127 491.024 25.5059C490.93 24.873 490.883 24.2871 490.883 23.748ZM491.446 15.4688L491.481 17.7539H488.194C487.268 17.7539 486.442 17.8301 485.715 17.9824C484.989 18.123 484.379 18.3398 483.887 18.6328C483.395 18.9258 483.02 19.2949 482.762 19.7402C482.504 20.1738 482.375 20.6836 482.375 21.2695C482.375 21.8672 482.51 22.4121 482.78 22.9043C483.049 23.3965 483.454 23.7891 483.993 24.082C484.543 24.3633 485.217 24.5039 486.014 24.5039C487.01 24.5039 487.889 24.293 488.651 23.8711C489.413 23.4492 490.016 22.9336 490.461 22.3242C490.918 21.7148 491.164 21.123 491.2 20.5488L492.588 22.1133C492.506 22.6055 492.284 23.1504 491.92 23.748C491.557 24.3457 491.071 24.9199 490.461 25.4707C489.864 26.0098 489.149 26.4609 488.317 26.8242C487.496 27.1758 486.571 27.3516 485.539 27.3516C484.25 27.3516 483.12 27.0996 482.147 26.5957C481.186 26.0918 480.436 25.418 479.897 24.5742C479.37 23.7188 479.106 22.7637 479.106 21.709C479.106 20.6895 479.305 19.793 479.704 19.0195C480.102 18.2344 480.676 17.584 481.426 17.0684C482.176 16.541 483.079 16.1426 484.133 15.873C485.188 15.6035 486.366 15.4688 487.666 15.4688H491.446ZM518.624 7.98047V27H515.354V7.98047H518.624ZM515.108 2.93555C515.108 2.4082 515.266 1.96289 515.583 1.59961C515.911 1.23633 516.391 1.05469 517.024 1.05469C517.645 1.05469 518.12 1.23633 518.448 1.59961C518.788 1.96289 518.958 2.4082 518.958 2.93555C518.958 3.43945 518.788 3.87305 518.448 4.23633C518.12 4.58789 517.645 4.76367 517.024 4.76367C516.391 4.76367 515.911 4.58789 515.583 4.23633C515.266 3.87305 515.108 3.43945 515.108 2.93555ZM542.936 12.041V27H539.684V7.98047H542.76L542.936 12.041ZM542.163 16.7695L540.809 16.7168C540.821 15.416 541.014 14.2148 541.389 13.1133C541.764 12 542.292 11.0332 542.971 10.2129C543.651 9.39258 544.46 8.75977 545.397 8.31445C546.346 7.85742 547.395 7.62891 548.544 7.62891C549.481 7.62891 550.325 7.75781 551.075 8.01562C551.825 8.26172 552.464 8.66016 552.991 9.21094C553.53 9.76172 553.94 10.4766 554.221 11.3555C554.503 12.2227 554.643 13.2832 554.643 14.5371V27H551.374V14.502C551.374 13.5059 551.227 12.709 550.934 12.1113C550.641 11.502 550.214 11.0625 549.651 10.793C549.089 10.5117 548.397 10.3711 547.577 10.3711C546.768 10.3711 546.03 10.541 545.362 10.8809C544.706 11.2207 544.137 11.6895 543.657 12.2871C543.188 12.8848 542.819 13.5703 542.55 14.3438C542.292 15.1055 542.163 15.9141 542.163 16.7695Z" fill="white"/>
</svg>
