<svg width="77" height="56" viewBox="0 0 77 56" fill="none" xmlns="http://www.w3.org/2000/svg">
<path d="M68.5696 19.8188C39.4196 -2.5939 32.6893 18.1221 20.1917 22.5526C16.503 23.861 17.0684 30.5839 20.1917 33.0308C34.9887 44.6277 48.3367 51.4168 67.4652 39.0962C56.6309 29.4366 63.3855 22.9166 68.5696 19.821V19.8188Z" fill="url(#paint0_linear_304_2075)"/>
<path d="M20.0832 22.7294C20.1715 22.6985 20.2598 22.6654 20.346 22.6323C15.4048 18.8637 -7.43893 2.26933 3.70906 26.5685C3.70906 26.5685 -11.7484 51.598 20.4476 33.4944C20.3261 33.3996 20.2024 33.3025 20.0809 33.2076C16.9599 30.7607 16.3944 24.0378 20.0809 22.7294H20.0832Z" fill="url(#paint1_linear_304_2075)"/>
<path d="M3.43792 14.261C7.53089 14.261 15.5865 19.9051 19.061 22.491C17.9588 23.1816 17.2255 24.3951 16.9648 25.9903C16.5319 28.6358 17.517 31.7071 19.2819 33.3862C12.0612 37.3798 6.82185 39.4053 3.69856 39.4053C2.33571 39.4053 1.46101 39.0236 1.02366 38.2403C-0.434168 35.6345 2.87688 29.1808 4.27508 26.9148L4.46061 26.6125L4.31262 26.2904C0.924269 18.9055 1.03471 16.0747 1.72607 15.0024C2.04635 14.5016 2.60739 14.2588 3.43571 14.2588M3.43792 13.5991C0.254987 13.5991 -0.798629 16.7366 3.71181 26.5684C3.71181 26.5684 -4.62433 40.0672 3.69856 40.0672C6.7092 40.0672 11.8978 38.3021 20.4504 33.4943C20.3289 33.3995 20.2052 33.3024 20.0837 33.2075C16.9626 30.7606 16.3972 24.0376 20.0837 22.7292C20.1721 22.6984 20.2604 22.6653 20.3465 22.6322C17.4044 20.3882 8.11844 13.5991 3.43571 13.5991H3.43792Z" fill="url(#paint2_linear_304_2075)"/>
<path d="M50.3968 10.3536L47.1432 1.41541C46.8362 0.572561 46.0145 0.00992769 45.089 0.00330846C32.5428 -0.104806 23.0559 9.92553 20.6571 14.4994C20.1778 15.4129 20.582 16.5249 21.5472 16.9441L26.4597 19.0821C32.9183 14.3097 39.1583 7.73678 50.3946 10.3536H50.3968Z" fill="url(#paint3_linear_304_2075)"/>
<path d="M44.886 0.663388C44.9523 0.663388 45.0164 0.663388 45.0826 0.663388C45.732 0.670007 46.3085 1.06275 46.5184 1.64083L49.3655 9.46476C48.027 9.21984 46.7127 9.09629 45.4449 9.09629C38.2441 9.09629 33.3338 12.9222 28.5848 16.6201C27.825 17.2115 27.1027 17.7741 26.3716 18.3213L21.8103 16.3377C21.5077 16.2053 21.2824 15.9693 21.1786 15.6692C21.077 15.3823 21.1013 15.0757 21.2427 14.8043C23.5664 10.3738 32.7441 0.661179 44.886 0.661179M44.886 0.00146484C32.4393 0.00146484 23.0407 9.95017 20.6551 14.4998C20.1758 15.4132 20.58 16.5253 21.5453 16.9445L26.4577 19.0825C31.9003 15.0602 37.1904 9.75821 45.4449 9.75821C46.9844 9.75821 48.6278 9.94355 50.3927 10.3539L47.1391 1.41577C46.832 0.572926 46.0103 0.0102926 45.0848 0.00367341C45.0163 0.00367341 44.9501 0.00367341 44.8816 0.00367341L44.886 0.00146484Z" fill="url(#paint4_linear_304_2075)"/>
<path d="M25.0022 37.4739L20.5249 40.3224C19.7474 40.8166 19.2835 41.6484 19.2813 42.542C19.2747 44.8058 19.8931 48.9428 24.3528 49.8519C25.5698 50.099 26.809 49.5231 27.3833 48.4685L30.8666 42.0699C31.0765 41.686 31.1781 41.2733 31.1803 40.8652C29.2785 39.7862 27.3833 38.5639 25.4793 37.229C25.3136 37.2952 25.1546 37.3746 25.0022 37.4717V37.4739Z" fill="url(#paint5_linear_304_2075)"/>
<path d="M25.4174 37.9976C27.2 39.2353 28.8632 40.2988 30.4801 41.2322C30.4425 41.4131 30.3763 41.5896 30.2857 41.7595L26.8024 48.1581C26.4401 48.8222 25.7024 49.2525 24.9205 49.2525C24.7747 49.2525 24.6289 49.237 24.4853 49.2083C20.5182 48.4008 19.9373 44.6896 19.944 42.5472C19.944 41.8786 20.2952 41.2564 20.8805 40.8857L25.3578 38.0373C25.3777 38.024 25.3976 38.013 25.4174 38.002M25.4793 37.2319C25.3136 37.2981 25.1546 37.3776 25.0022 37.4746L20.5249 40.3231C19.7474 40.8173 19.2835 41.6492 19.2813 42.5428C19.2747 44.8065 19.8931 48.9435 24.3528 49.8526C24.5427 49.8901 24.7327 49.91 24.9205 49.91C25.9409 49.91 26.8996 49.3606 27.3833 48.4714L30.8666 42.0728C31.0765 41.6889 31.1781 41.2763 31.1803 40.8681C29.2785 39.7892 27.3833 38.5668 25.4793 37.2319Z" fill="url(#paint6_linear_304_2075)"/>
<path d="M48.1111 43.0719L43.2163 45.4416C42.1428 45.9601 41.6017 46.9419 41.8645 47.8951C42.6619 50.7877 44.7669 56.4405 48.7892 55.1564C52.5464 53.9561 52.8822 48.2658 52.7474 44.9782C52.6944 43.6765 51.2764 42.6593 49.5888 42.7167C49.0653 42.7343 48.5551 42.8579 48.1111 43.0719Z" fill="url(#paint7_linear_304_2075)"/>
<path d="M49.7235 43.3748C50.9892 43.3748 52.0472 44.1051 52.0848 45.0054C52.2107 48.1032 51.9235 53.4603 48.586 54.526C48.2635 54.6297 47.9454 54.6827 47.6428 54.6827C44.736 54.6827 43.0794 49.8131 42.5029 47.7214C42.3262 47.0794 42.7193 46.4197 43.5057 46.038L48.4005 43.6683C48.7605 43.494 49.1802 43.3925 49.6109 43.3792C49.6485 43.3792 49.686 43.3792 49.7235 43.3792M49.7235 42.7129C49.6794 42.7129 49.633 42.7129 49.5888 42.7151C49.0653 42.7328 48.5551 42.8563 48.1111 43.0703L43.2163 45.44C42.1428 45.9585 41.6017 46.9404 41.8645 47.8935C42.5824 50.4971 44.3605 55.3424 47.6428 55.3424C48.0051 55.3424 48.3872 55.2828 48.787 55.1548C52.5442 53.9546 52.88 48.2642 52.7452 44.9767C52.6944 43.7102 51.3493 42.7129 49.7213 42.7129H49.7235Z" fill="url(#paint8_linear_304_2075)"/>
<path d="M56.0433 36.0475L50.8349 37.2765C49.9315 37.4905 48.9861 37.25 48.308 36.6454C46.5895 35.1076 43.8793 31.8509 46.2317 28.0735C46.8722 27.0431 48.1534 26.5577 49.3417 26.871L56.558 28.7641C57.9275 29.1238 58.7801 30.4322 58.5305 31.7935L58.1461 33.883C57.9518 34.9421 57.1235 35.7938 56.0433 36.0497V36.0475Z" fill="url(#paint9_linear_304_2075)" stroke="url(#paint10_linear_304_2075)" stroke-width="3" stroke-miterlimit="10"/>
<path d="M73.2278 23.4513C71.6551 22.1319 70.1399 20.9228 68.682 19.8174C63.414 22.9152 56.5489 29.4329 67.56 39.0926C70.0007 37.5459 72.5365 35.6969 75.1782 33.5192C78.3943 30.8671 76.4196 26.1277 73.2278 23.4513Z" fill="url(#paint11_linear_304_2075)"/>
<path d="M68.6379 20.6176C69.9897 21.6502 71.3879 22.771 72.8015 23.9581C74.8469 25.6747 76.1634 28.073 76.1545 30.0676C76.1501 31.2591 75.6774 32.2498 74.7541 33.011C72.3288 35.01 69.9322 36.7773 67.624 38.2667C63.8513 34.8533 62.0842 31.5923 62.3692 28.5739C62.7071 24.9973 65.879 22.3055 68.6357 20.6176M68.682 19.8188C63.414 22.9166 56.5489 29.4344 67.56 39.0941C70.0007 37.5474 72.5365 35.6984 75.1782 33.5207C78.3943 30.8686 76.4196 26.1292 73.2278 23.4528C71.6551 22.1334 70.1399 20.9243 68.682 19.8188Z" fill="url(#paint12_linear_304_2075)"/>
<g opacity="0.62">
<path d="M68.3928 28.519C69.265 28.519 69.9721 27.8354 69.9721 26.9922C69.9721 26.1489 69.265 25.4653 68.3928 25.4653C67.5206 25.4653 66.8135 26.1489 66.8135 26.9922C66.8135 27.8354 67.5206 28.519 68.3928 28.519Z" fill="#0F93FF"/>
</g>
<defs>
<linearGradient id="paint0_linear_304_2075" x1="35.9297" y1="12.1957" x2="55.4765" y2="46.0893" gradientUnits="userSpaceOnUse">
<stop stop-color="#B3FFFA" stop-opacity="0.7"/>
<stop offset="1" stop-color="#48BFFF"/>
</linearGradient>
<linearGradient id="paint1_linear_304_2075" x1="1.05625" y1="14.4377" x2="14.1441" y2="37.132" gradientUnits="userSpaceOnUse">
<stop stop-color="#5BB0FF" stop-opacity="0.7"/>
<stop offset="1" stop-color="#0073C9"/>
</linearGradient>
<linearGradient id="paint2_linear_304_2075" x1="0.00317824" y1="26.8332" x2="20.4504" y2="26.8332" gradientUnits="userSpaceOnUse">
<stop stop-color="white" stop-opacity="0.05"/>
<stop offset="0.18" stop-color="white" stop-opacity="0.8"/>
<stop offset="0.8" stop-color="white" stop-opacity="0.8"/>
<stop offset="1" stop-color="white" stop-opacity="0.05"/>
</linearGradient>
<linearGradient id="paint3_linear_304_2075" x1="31.1976" y1="4.0631" x2="39.7582" y2="18.9049" gradientUnits="userSpaceOnUse">
<stop stop-color="#5BB0FF" stop-opacity="0.7"/>
<stop offset="1" stop-color="#0073C9"/>
</linearGradient>
<linearGradient id="paint4_linear_304_2075" x1="20.4563" y1="9.54199" x2="50.3971" y2="9.54199" gradientUnits="userSpaceOnUse">
<stop stop-color="white" stop-opacity="0.05"/>
<stop offset="0.18" stop-color="white" stop-opacity="0.8"/>
<stop offset="0.8" stop-color="white" stop-opacity="0.8"/>
<stop offset="1" stop-color="white" stop-opacity="0.05"/>
</linearGradient>
<linearGradient id="paint5_linear_304_2075" x1="22.7536" y1="38.7691" x2="28.3063" y2="48.3965" gradientUnits="userSpaceOnUse">
<stop stop-color="#5BB0FF" stop-opacity="0.7"/>
<stop offset="1" stop-color="#0073C9"/>
</linearGradient>
<linearGradient id="paint6_linear_304_2075" x1="19.2813" y1="43.5709" x2="31.1803" y2="43.5709" gradientUnits="userSpaceOnUse">
<stop stop-color="white" stop-opacity="0.05"/>
<stop offset="0.18" stop-color="white" stop-opacity="0.8"/>
<stop offset="0.8" stop-color="white" stop-opacity="0.8"/>
<stop offset="1" stop-color="white" stop-opacity="0.05"/>
</linearGradient>
<linearGradient id="paint7_linear_304_2075" x1="45.6438" y1="44.0317" x2="51.2913" y2="53.8247" gradientUnits="userSpaceOnUse">
<stop stop-color="#5BB0FF" stop-opacity="0.7"/>
<stop offset="1" stop-color="#0073C9"/>
</linearGradient>
<linearGradient id="paint8_linear_304_2075" x1="41.8005" y1="49.0298" x2="52.7717" y2="49.0298" gradientUnits="userSpaceOnUse">
<stop stop-color="white" stop-opacity="0.05"/>
<stop offset="0.18" stop-color="white" stop-opacity="0.8"/>
<stop offset="0.8" stop-color="white" stop-opacity="0.8"/>
<stop offset="1" stop-color="white" stop-opacity="0.05"/>
</linearGradient>
<linearGradient id="paint9_linear_304_2075" x1="48.8097" y1="26.2058" x2="54.9294" y2="36.816" gradientUnits="userSpaceOnUse">
<stop stop-color="#5BB0FF" stop-opacity="0.7"/>
<stop offset="1" stop-color="#0073C9"/>
</linearGradient>
<linearGradient id="paint10_linear_304_2075" x1="47.4495" y1="36.3115" x2="55.8827" y2="27.2422" gradientUnits="userSpaceOnUse">
<stop stop-color="white" stop-opacity="0.05"/>
<stop offset="0.18" stop-color="white" stop-opacity="0.8"/>
<stop offset="0.8" stop-color="white" stop-opacity="0.8"/>
<stop offset="1" stop-color="white" stop-opacity="0.05"/>
</linearGradient>
<linearGradient id="paint11_linear_304_2075" x1="75.3925" y1="49.8003" x2="66.1979" y2="19.7764" gradientUnits="userSpaceOnUse">
<stop stop-color="#38CAFF" stop-opacity="0.7"/>
<stop offset="1" stop-color="#E2FBFF"/>
</linearGradient>
<linearGradient id="paint12_linear_304_2075" x1="61.6778" y1="29.4565" x2="76.8194" y2="29.4565" gradientUnits="userSpaceOnUse">
<stop stop-color="white" stop-opacity="0.05"/>
<stop offset="0.18" stop-color="white" stop-opacity="0.8"/>
<stop offset="0.8" stop-color="white" stop-opacity="0.8"/>
<stop offset="1" stop-color="white" stop-opacity="0.05"/>
</linearGradient>
</defs>
</svg>
