<svg width="40" height="40" viewBox="0 0 40 40" fill="none" xmlns="http://www.w3.org/2000/svg">
<path fill-rule="evenodd" clip-rule="evenodd" d="M9.52361 7.86333C1.9125 14.0433 -0.126203 15.9767 0.00594022 16.8911C0.121846 17.6956 0.649299 18.11 1.71316 18.2311L3.25297 18.4072V28.3389C3.25297 37.9722 3.29048 38.2961 4.49769 39.135C5.54532 39.8633 8.01405 40 20.1348 40H34.5278L35.688 38.5361C36.758 37.1867 36.8487 36.3406 36.8487 27.7028C36.8487 18.9072 36.9131 18.3333 37.9003 18.3333C38.4781 18.3333 39.2934 17.9244 39.7111 17.4244C40.3796 16.6256 40.0504 16.1406 36.9764 13.3967L33.4813 10.2778L33.4852 6.59556C33.4897 2.46389 32.8391 1.47667 30.3031 1.76556C28.9408 1.92056 28.6922 2.23222 28.4498 4.08889L28.1698 6.23278L24.3438 3.11667C22.2396 1.40222 20.2239 0 19.8638 0C19.5038 0 14.8508 3.53833 9.52361 7.86333ZM25.0902 30V36.6667H20.0508H15.0115V30V23.3333H20.0508H25.0902V30Z" fill="white"/>
</svg>
