<svg width="131" height="126" viewBox="0 0 131 126" fill="none" xmlns="http://www.w3.org/2000/svg">
<path d="M26.5664 0.5L27.79 86.1074L27.791 86.2061L27.8301 86.2969L31.5205 94.9072L31.584 95.0557L31.7227 95.1387L37.873 98.8291L37.8896 98.8389L37.9062 98.8477L40.3662 100.077L40.4717 100.13H88.6631L88.7568 100.09L97.3672 96.3994L97.4902 96.3467L97.5703 96.2402L101.26 91.3203L101.32 91.2393L101.345 91.1416L102.575 86.2217L102.589 86.165L102.59 86.1074L103.813 0.5H129.88V93.3984L125.016 107.989L117.758 116.456L106.839 122.522L93.4336 124.96H35.7324L21.1162 121.306L10.2061 114.032L4.15332 104.349L0.5 90.9521V0.5H26.5664Z" fill="#FDFDFE"/>
<path d="M26.5664 0.5L27.79 86.1074L27.791 86.2061L27.8301 86.2969L31.5205 94.9072L31.584 95.0557L31.7227 95.1387L37.873 98.8291L37.8896 98.8389L37.9062 98.8477L40.3662 100.077L40.4717 100.13H88.6631L88.7568 100.09L97.3672 96.3994L97.4902 96.3467L97.5703 96.2402L101.26 91.3203L101.32 91.2393L101.345 91.1416L102.575 86.2217L102.589 86.165L102.59 86.1074L103.813 0.5H129.88V93.3984L125.016 107.989L117.758 116.456L106.839 122.522L93.4336 124.96H35.7324L21.1162 121.306L10.2061 114.032L4.15332 104.349L0.5 90.9521V0.5H26.5664Z" stroke="black"/>
<path d="M26.5664 0.5L27.79 86.1074L27.791 86.2061L27.8301 86.2969L31.5205 94.9072L31.584 95.0557L31.7227 95.1387L37.873 98.8291L37.8896 98.8389L37.9062 98.8477L40.3662 100.077L40.4717 100.13H88.6631L88.7568 100.09L97.3672 96.3994L97.4902 96.3467L97.5703 96.2402L101.26 91.3203L101.32 91.2393L101.345 91.1416L102.575 86.2217L102.589 86.165L102.59 86.1074L103.813 0.5H129.88V93.3984L125.016 107.989L117.758 116.456L106.839 122.522L93.4336 124.96H35.7324L21.1162 121.306L10.2061 114.032L4.15332 104.349L0.5 90.9521V0.5H26.5664Z" stroke="black" stroke-opacity="0.2"/>
</svg>
