<svg width="43" height="80" viewBox="0 0 43 80" fill="none" xmlns="http://www.w3.org/2000/svg">
<path d="M41.4448 18.7105C42.3757 19.0032 42.819 20.0662 42.3757 20.9372C41.5568 22.5434 40.8219 24.0442 39.856 25.4022C37.2733 29.0337 31.3309 31.0496 26.9353 30.0218C23.69 29.2632 22.5281 26.8913 24.0003 24.0278C26.4337 19.2888 32.7657 16.6079 38.5915 17.9027C39.5154 18.1088 40.4206 18.3897 41.4448 18.7105Z" fill="url(#paint0_linear_269_237)"/>
<path d="M35.6052 17.5775V18.28C36.5665 18.28 37.5207 18.383 38.4423 18.589C39.3638 18.7951 40.3181 19.0924 41.2373 19.3804C41.4823 19.4577 41.6806 19.638 41.7809 19.8768C41.8813 20.1156 41.8719 20.3849 41.7529 20.6167L41.536 21.0428C40.8174 22.4593 40.1361 23.7986 39.2869 24.9927C37.3644 27.697 33.2885 29.5865 29.3735 29.5865C28.5686 29.5865 27.801 29.5023 27.0941 29.3384C25.6849 29.0082 24.719 28.3573 24.3014 27.4535C23.9071 26.5989 24.0168 25.5242 24.621 24.3512C26.4852 20.7197 30.8994 18.28 35.6006 18.28V17.5775M35.6052 17.5775C30.7314 17.5775 26.0232 20.0945 24.0028 24.0281C22.5329 26.8916 23.6948 29.2634 26.9378 30.022C27.7124 30.2023 28.5313 30.289 29.3759 30.289C33.3211 30.289 37.7307 28.3948 39.8585 25.4001C40.8244 24.0445 41.5593 22.5413 42.3782 20.9351C42.8215 20.0641 42.3782 19.0011 41.4473 18.7084C40.4231 18.3877 39.5178 18.1067 38.5939 17.9006C37.6047 17.6806 36.6015 17.5752 35.6052 17.5752V17.5775Z" fill="url(#paint1_linear_269_237)"/>
<path d="M11.525 10.1561C11.8284 9.40219 12.6543 9.01586 13.4312 9.23829C20.6451 11.3081 24.2801 16.4076 23.5591 23.2656C23.1765 26.9041 20.0502 28.3745 16.7512 26.4686C12.3323 23.9165 8.49203 18.6343 11.0258 11.4579C11.1798 11.0201 11.3501 10.5846 11.525 10.1538V10.1561Z" fill="url(#paint2_linear_269_237)"/>
<path d="M12.9879 9.87771C13.0719 9.87771 13.1582 9.88942 13.2399 9.91283C16.6672 10.8962 19.2476 12.5633 20.9041 14.8672C22.5466 17.1477 23.2045 19.9504 22.8639 23.1932C22.6422 25.2981 21.387 26.6046 19.5882 26.6046C18.802 26.6046 17.9434 26.3471 17.1011 25.8624C12.9179 23.4461 9.29928 18.4566 11.686 11.6946C11.847 11.2404 12.022 10.7955 12.1736 10.4186C12.3066 10.0908 12.6263 9.87771 12.9879 9.87771ZM12.9879 9.17529C12.3603 9.17529 11.7724 9.54523 11.525 10.1563C11.3524 10.5872 11.1821 11.0203 11.0258 11.4605C8.49203 18.6369 12.3323 23.919 16.7512 26.4712C17.7334 27.0401 18.7016 27.307 19.5859 27.307C21.6693 27.307 23.2885 25.8226 23.5568 23.2681C24.2777 16.4102 20.6428 11.3083 13.4289 9.24085C13.2819 9.19871 13.1325 9.17763 12.9832 9.17763L12.9879 9.17529Z" fill="url(#paint3_linear_269_237)"/>
<path d="M36.298 32.2363C37.1053 32.5407 37.5276 33.4304 37.2429 34.2475C34.9705 40.773 30.8712 43.1917 24.9825 43.6951C23.6316 43.8098 22.1571 43.592 20.8646 43.18C18.6318 42.4658 17.7103 40.5459 18.5315 38.4574C18.9538 37.385 19.5977 36.3056 20.419 35.4744C24.8845 30.9555 29.8797 29.8083 36.298 32.2386V32.2363Z" fill="url(#paint4_linear_269_237)"/>
<path d="M30.1596 31.6936C31.9888 31.6936 33.9159 32.087 36.0507 32.8948C36.508 33.068 36.7413 33.5597 36.5803 34.0163C34.5738 39.7831 31.0859 42.4687 24.9218 42.9955C24.7025 43.0143 24.4739 43.0236 24.2429 43.0236C23.2234 43.0236 22.1268 42.8457 21.0769 42.5109C20.1577 42.2158 19.4974 41.6937 19.1661 40.996C18.8511 40.331 18.8558 39.542 19.1824 38.7155C19.6001 37.6525 20.216 36.6785 20.9159 35.969C23.7576 33.0938 26.7813 31.6936 30.1596 31.6936ZM30.1596 30.9912C26.5154 30.9912 23.3517 32.5061 20.419 35.4726C19.5977 36.3038 18.9515 37.3832 18.5315 38.4556C17.7103 40.5441 18.6318 42.464 20.8646 43.1782C21.9238 43.5177 23.1067 43.726 24.2429 43.726C24.4926 43.726 24.7399 43.7167 24.9825 43.6956C30.8736 43.1922 34.9728 40.7736 37.2429 34.2481C37.5276 33.4309 37.1053 32.5412 36.298 32.2368C34.0956 31.4033 32.0634 30.9912 30.1596 30.9912Z" fill="url(#paint5_linear_269_237)"/>
<path d="M31.1185 45.673C31.9444 45.9353 32.4087 46.8227 32.1474 47.6515C29.8843 54.8185 23.7576 58.052 16.8936 57.0124C13.3543 56.4762 12.1971 53.7625 13.919 50.7375C16.5483 46.1226 22.6331 43.6337 28.3608 44.891C29.2964 45.097 30.2109 45.3827 31.1185 45.6707V45.673Z" fill="url(#paint6_linear_269_237)"/>
<path d="M25.3511 44.5684V45.2708C26.317 45.2708 27.2783 45.3738 28.2092 45.5798C29.0841 45.7718 29.9473 46.0388 30.9062 46.3431C31.1279 46.4134 31.3098 46.5679 31.4195 46.7763C31.5268 46.9847 31.5478 47.2188 31.4778 47.4412C30.5586 50.3539 28.9814 52.6345 26.7883 54.2172C24.7188 55.711 22.1548 56.5024 19.3691 56.5024C18.5921 56.5024 17.7942 56.4416 16.9963 56.3198C15.5638 56.1021 14.5302 55.4769 14.0869 54.5567C13.632 53.6155 13.7883 52.3816 14.5256 51.0868C16.539 47.5536 20.7876 45.2708 25.3488 45.2708V44.5684M25.3511 44.5684C20.6149 44.5684 16.0887 46.9285 13.919 50.7379C12.1971 53.763 13.3543 56.4767 16.8936 57.0129C17.7336 57.1393 18.5595 57.2025 19.3714 57.2025C25.1971 57.2025 30.1596 53.941 32.1451 47.652C32.4064 46.8231 31.9444 45.9357 31.1162 45.6735C30.2086 45.3855 29.294 45.0975 28.3585 44.8938C27.3599 44.6737 26.3497 44.5684 25.3488 44.5684H25.3511Z" fill="url(#paint7_linear_269_237)"/>
<path d="M8.3173 22.7425C15.0319 24.728 18.2889 28.8512 18.5806 35.0442C18.6086 35.6295 18.5526 36.5801 18.4219 37.1514C17.5913 40.7642 14.4533 41.9583 11.0564 39.6263C5.97488 36.1353 3.93576 31.3214 5.8139 25.2993C5.98188 24.7584 6.18253 24.2246 6.39484 23.6814C6.69347 22.9134 7.53105 22.5107 8.31964 22.7425H8.3173Z" fill="url(#paint8_linear_269_237)"/>
<path d="M7.86468 23.3792C7.95101 23.3792 8.03501 23.3909 8.119 23.4166C14.4044 25.2757 17.5984 29.0898 17.8807 35.0768C17.904 35.5966 17.8527 36.4886 17.7383 36.992C17.2811 38.9822 16.0772 40.1225 14.437 40.1225C13.5084 40.1225 12.4772 39.7502 11.4507 39.0454C6.4275 35.5942 4.75467 31.0402 6.48116 25.5075C6.63748 25.0088 6.81946 24.5171 7.04577 23.9341C7.17643 23.5969 7.49839 23.3768 7.86468 23.3768M7.86468 22.6768C7.23008 22.6768 6.63515 23.0584 6.39484 23.6812C6.18486 24.2244 5.98422 24.7583 5.8139 25.2991C3.93576 31.3188 5.97488 36.1351 11.0564 39.6261C12.2439 40.4433 13.4011 40.8272 14.4393 40.8272C16.3665 40.8272 17.883 39.4997 18.4219 37.1536C18.5526 36.5823 18.6086 35.6317 18.5806 35.0463C18.2889 28.8534 15.0319 24.7302 8.3173 22.7447C8.16799 22.7002 8.014 22.6791 7.86468 22.6791V22.6768Z" fill="url(#paint9_linear_269_237)"/>
<path d="M1.28759 37.1558C1.59089 36.3925 2.42848 35.9992 3.21239 36.2333C10.3213 38.3616 13.7603 43.007 13.401 49.7759C13.1817 53.9155 9.69372 55.5966 6.11009 53.2271C1.01228 49.8579 -1.41414 44.7958 0.851298 38.3125C0.986618 37.9261 1.1336 37.5422 1.28992 37.1558H1.28759Z" fill="url(#paint10_linear_269_237)"/>
<path d="M2.75475 36.8684C2.84107 36.8684 2.92973 36.8801 3.01373 36.9059C9.78903 38.9335 13.0484 43.2511 12.7031 49.7367C12.5771 52.0875 11.2565 53.607 9.33641 53.607C8.43584 53.607 7.4536 53.2722 6.4947 52.6401C2.82241 50.212 -1.02253 45.7985 1.51121 38.5449C1.65353 38.1375 1.80751 37.7465 1.93817 37.4163C2.07115 37.0838 2.39079 36.8684 2.75475 36.8684ZM2.75475 36.166C2.12481 36.166 1.53454 36.5406 1.28957 37.1564C1.13558 37.5428 0.986263 37.9267 0.850944 38.3131C-1.41216 44.7964 1.01426 49.8585 6.10974 53.2277C7.22729 53.9653 8.33318 54.3118 9.33641 54.3118C11.5505 54.3118 13.249 52.626 13.4007 49.7765C13.7623 43.0076 10.321 38.3622 3.21204 36.2339C3.06039 36.1871 2.90407 36.166 2.75242 36.166H2.75475Z" fill="url(#paint11_linear_269_237)"/>
<path d="M32.2312 0.131261C33.0805 -0.236338 34.0627 0.206185 34.352 1.08889C34.9236 2.84025 35.4859 4.45113 35.7635 6.1065C36.4891 10.4311 33.5914 15.7413 29.6368 17.8252C26.7181 19.3658 24.1587 18.3801 23.1742 15.3339C21.5433 10.2952 24.245 4.24743 29.4385 1.43542C30.2971 0.96948 31.2 0.578467 32.2312 0.131261Z" fill="url(#paint12_linear_269_237)"/>
<path d="M32.8542 0.702418C33.2345 0.702418 33.5681 0.945923 33.6847 1.3065C33.7477 1.50083 33.8107 1.69283 33.8737 1.88482C34.3683 3.38565 34.8326 4.8022 35.0706 6.22108C35.7332 10.1757 33.0945 15.205 29.3102 17.2022C28.5076 17.626 27.74 17.8391 27.0308 17.8391C25.5399 17.8391 24.4084 16.8721 23.8391 15.116C23.1042 12.8425 23.2978 10.2576 24.385 7.83664C25.4839 5.39223 27.397 3.33649 29.7698 2.05106C30.5934 1.6062 31.466 1.22689 32.4762 0.786708L32.5065 0.77266C32.6162 0.72349 32.7328 0.700077 32.8518 0.700077M32.8542 0C32.6465 0 32.4342 0.0421451 32.2312 0.131118C31.2 0.578324 30.2971 0.969337 29.4385 1.43527C24.245 4.24729 21.5433 10.2974 23.1742 15.3338C23.8508 17.4223 25.2669 18.5415 27.0308 18.5415C27.838 18.5415 28.7199 18.3074 29.6368 17.8227C33.5914 15.7365 36.4891 10.4286 35.7635 6.10401C35.4859 4.44865 34.9236 2.83777 34.352 1.08641C34.1327 0.416768 33.5121 0 32.8542 0Z" fill="url(#paint13_linear_269_237)"/>
<path d="M9.33576 56.0548L1.0604 76.977C0.775171 77.6981 1.12647 78.5148 1.84505 78.801L3.15049 79.321C3.86907 79.6073 4.68281 79.2547 4.96805 78.5336L13.2434 57.6114C13.5286 56.8903 13.1773 56.0736 12.4588 55.7874L11.1533 55.2674C10.4347 54.9811 9.62099 55.3337 9.33576 56.0548Z" fill="url(#paint14_linear_269_237)"/>
<path d="M10.6431 55.8729C10.7318 55.8729 10.8181 55.8893 10.8998 55.9221L12.2063 56.4419C12.5656 56.5847 12.7406 56.9945 12.5983 57.355L4.32278 78.2777C4.21546 78.547 3.96115 78.7203 3.67184 78.7203C3.58319 78.7203 3.49687 78.7039 3.41287 78.6711L2.10634 78.1513C1.93369 78.0811 1.79604 77.9499 1.72138 77.7767C1.64672 77.6034 1.64439 77.4138 1.71438 77.2382L9.98986 56.3155C10.0972 56.0462 10.3515 55.8729 10.6408 55.8729M10.6431 55.1705C10.0855 55.1705 9.56058 55.5053 9.34126 56.0579L1.06578 76.9806C0.781145 77.7018 1.13111 78.5189 1.8497 78.8046L3.15623 79.3243C3.32655 79.3922 3.50153 79.4227 3.67184 79.4227C4.22945 79.4227 4.7544 79.0879 4.97371 78.5353L13.2492 57.6126C13.5338 56.8914 13.1839 56.0743 12.4653 55.7887L11.1587 55.2689C10.9884 55.201 10.8134 55.1682 10.6431 55.1705Z" fill="url(#paint15_linear_269_237)"/>
<defs>
<linearGradient id="paint0_linear_269_237" x1="30.092" y1="18.5372" x2="35.9582" y2="28.6644" gradientUnits="userSpaceOnUse">
<stop stop-color="#FFE055" stop-opacity="0.7"/>
<stop offset="1" stop-color="#FF9F0C"/>
</linearGradient>
<linearGradient id="paint1_linear_269_237" x1="23.3728" y1="23.9344" x2="42.5508" y2="23.9344" gradientUnits="userSpaceOnUse">
<stop stop-color="white" stop-opacity="0.05"/>
<stop offset="0.18" stop-color="white" stop-opacity="0.8"/>
<stop offset="0.8" stop-color="white" stop-opacity="0.8"/>
<stop offset="1" stop-color="white" stop-opacity="0.05"/>
</linearGradient>
<linearGradient id="paint2_linear_269_237" x1="11.805" y1="9.61292" x2="21.7056" y2="26.698" gradientUnits="userSpaceOnUse">
<stop stop-color="#FFE055" stop-opacity="0.7"/>
<stop offset="1" stop-color="#FF9F0C"/>
</linearGradient>
<linearGradient id="paint3_linear_269_237" x1="10.2185" y1="18.2412" x2="23.6501" y2="18.2412" gradientUnits="userSpaceOnUse">
<stop stop-color="white" stop-opacity="0.05"/>
<stop offset="0.18" stop-color="white" stop-opacity="0.8"/>
<stop offset="0.8" stop-color="white" stop-opacity="0.8"/>
<stop offset="1" stop-color="white" stop-opacity="0.05"/>
</linearGradient>
<linearGradient id="paint4_linear_269_237" x1="24.9382" y1="32.1052" x2="30.8161" y2="42.2534" gradientUnits="userSpaceOnUse">
<stop stop-color="#FFE055" stop-opacity="0.7"/>
<stop offset="1" stop-color="#FF9F0C"/>
</linearGradient>
<linearGradient id="paint5_linear_269_237" x1="18.2329" y1="37.3575" x2="37.3292" y2="37.3575" gradientUnits="userSpaceOnUse">
<stop stop-color="white" stop-opacity="0.05"/>
<stop offset="0.18" stop-color="white" stop-opacity="0.8"/>
<stop offset="0.8" stop-color="white" stop-opacity="0.8"/>
<stop offset="1" stop-color="white" stop-opacity="0.05"/>
</linearGradient>
<linearGradient id="paint6_linear_269_237" x1="19.8123" y1="45.556" x2="25.7043" y2="55.7252" gradientUnits="userSpaceOnUse">
<stop stop-color="#FFE055" stop-opacity="0.7"/>
<stop offset="1" stop-color="#FF9F0C"/>
</linearGradient>
<linearGradient id="paint7_linear_269_237" x1="13.1327" y1="50.8878" x2="32.2197" y2="50.8878" gradientUnits="userSpaceOnUse">
<stop stop-color="white" stop-opacity="0.05"/>
<stop offset="0.18" stop-color="white" stop-opacity="0.8"/>
<stop offset="0.8" stop-color="white" stop-opacity="0.8"/>
<stop offset="1" stop-color="white" stop-opacity="0.05"/>
</linearGradient>
<linearGradient id="paint8_linear_269_237" x1="6.68181" y1="23.1171" x2="16.5706" y2="40.1859" gradientUnits="userSpaceOnUse">
<stop stop-color="#FFE055" stop-opacity="0.7"/>
<stop offset="1" stop-color="#FF9F0C"/>
</linearGradient>
<linearGradient id="paint9_linear_269_237" x1="5.1233" y1="31.752" x2="18.5853" y2="31.752" gradientUnits="userSpaceOnUse">
<stop stop-color="white" stop-opacity="0.05"/>
<stop offset="0.18" stop-color="white" stop-opacity="0.8"/>
<stop offset="0.8" stop-color="white" stop-opacity="0.8"/>
<stop offset="1" stop-color="white" stop-opacity="0.05"/>
</linearGradient>
<linearGradient id="paint10_linear_269_237" x1="1.57222" y1="36.6033" x2="11.4728" y2="53.6907" gradientUnits="userSpaceOnUse">
<stop stop-color="#FFE055" stop-opacity="0.7"/>
<stop offset="1" stop-color="#FF9F0C"/>
</linearGradient>
<linearGradient id="paint11_linear_269_237" x1="-0.000634821" y1="45.2389" x2="13.4263" y2="45.2389" gradientUnits="userSpaceOnUse">
<stop stop-color="white" stop-opacity="0.05"/>
<stop offset="0.18" stop-color="white" stop-opacity="0.8"/>
<stop offset="0.8" stop-color="white" stop-opacity="0.8"/>
<stop offset="1" stop-color="white" stop-opacity="0.05"/>
</linearGradient>
<linearGradient id="paint12_linear_269_237" x1="25.9599" y1="3.44433" x2="33.1255" y2="15.8106" gradientUnits="userSpaceOnUse">
<stop stop-color="#FFE055" stop-opacity="0.7"/>
<stop offset="1" stop-color="#FF9F0C"/>
</linearGradient>
<linearGradient id="paint13_linear_269_237" x1="22.7005" y1="9.27192" x2="35.8755" y2="9.27192" gradientUnits="userSpaceOnUse">
<stop stop-color="white" stop-opacity="0.05"/>
<stop offset="0.18" stop-color="white" stop-opacity="0.8"/>
<stop offset="0.8" stop-color="white" stop-opacity="0.8"/>
<stop offset="1" stop-color="white" stop-opacity="0.05"/>
</linearGradient>
<linearGradient id="paint14_linear_269_237" x1="5.48643" y1="55.912" x2="8.83976" y2="78.6752" gradientUnits="userSpaceOnUse">
<stop stop-color="#FFE055" stop-opacity="0.7"/>
<stop offset="1" stop-color="#FF9F0C"/>
</linearGradient>
<linearGradient id="paint15_linear_269_237" x1="5.20236" y1="66.5193" x2="9.11406" y2="68.0668" gradientUnits="userSpaceOnUse">
<stop stop-color="white" stop-opacity="0.05"/>
<stop offset="0.18" stop-color="white" stop-opacity="0.8"/>
<stop offset="0.8" stop-color="white" stop-opacity="0.8"/>
<stop offset="1" stop-color="white" stop-opacity="0.05"/>
</linearGradient>
</defs>
</svg>
